<?xml version="1.0" standalone="no"?><!-- Generator: Gravit.io --><svg xmlns="http://www.w3.org/2000/svg" xmlns:xlink="http://www.w3.org/1999/xlink" style="isolation:isolate" viewBox="0 0 1920 1280" width="1920" height="1280"><defs><clipPath id="_clipPath_0vrDIY78FBfdNbgoJUfPVaTrF92OCr0C"><rect width="1920" height="1280"/></clipPath></defs><g clip-path="url(#_clipPath_0vrDIY78FBfdNbgoJUfPVaTrF92OCr0C)"><g id="faculty model"><g id="glass halls"><rect x="1410.021" y="807.489" width="305.202" height="285.847" transform="matrix(1,0,0,1,0,0)" fill="rgb(209,209,209)"/><path d=" M 1403.362 1099.995 L 1410.021 1093.336 L 1715.222 1093.336 L 1710.053 1099.995 L 1403.362 1099.995 Z " fill="rgb(162,162,162)"/><path d=" M 1403.356 1100.001 L 1410.021 1093.336 L 1410.021 807.489 L 1403.356 811.599 L 1403.356 1100.001 Z " fill="rgb(116,116,116)"/></g><g id="tower A"><rect x="1083.976" y="855.874" width="300.735" height="189.076" transform="matrix(1,0,0,1,0,0)" fill="rgb(209,209,209)"/><path d=" M 1077.313 1051.613 L 1083.976 1044.95 L 1384.711 1044.951 L 1379.537 1051.613 L 1077.313 1051.613 Z " fill="rgb(162,162,162)"/><path d=" M 1077.311 1051.615 L 1083.976 1044.95 L 1083.976 855.874 L 1077.311 859.985 L 1077.311 1051.615 Z " fill="rgb(116,116,116)"/></g><g id="computer center"><rect x="223.456" y="856" width="751.838" height="383.237" transform="matrix(1,0,0,1,0,0)" fill="rgb(209,209,209)"/><path d=" M 214.778 1247.916 L 223.456 1239.237 L 975.295 1239.237 L 968.105 1247.916 L 214.778 1247.916 Z " fill="rgb(162,162,162)"/><path d=" M 214.783 1247.911 L 223.456 1239.237 L 223.456 856.619 L 214.783 862.738 L 214.783 1247.911 Z " fill="rgb(116,116,116)"/></g><g id="corridor"><rect x="975.295" y="930" width="108.682" height="56.21" transform="matrix(1,0,0,1,0,0)" fill="rgb(209,209,209)"/><path d=" M 975.295 993.334 L 975.295 986.21 L 1083.976 986.21 L 1076.786 993.334 L 975.295 993.334 Z " fill="rgb(162,162,162)"/></g><g id="tower B"><rect x="399.133" y="408.493" width="990.044" height="189.076" transform="matrix(1,0,0,1,0,0)" fill="rgb(209,209,209)"/><path d=" M 390.46 606.292 L 399.139 597.613 L 1210.777 597.619 L 1203.587 606.298 L 390.46 606.292 Z " fill="rgb(162,162,162)"/><path d=" M 1325.166 606.292 L 1325.166 597.569 L 1389.178 597.569 L 1384.008 606.292 L 1325.166 606.292 Z " fill="rgb(162,162,162)"/><path d=" M 390.46 606.292 L 399.133 597.619 L 399.133 408.493 L 390.46 414.613 L 390.46 606.292 Z " fill="rgb(116,116,116)"/></g><g id="connector"><rect x="1210.523" y="597.569" width="114.637" height="258.305" transform="matrix(1,0,0,1,0,0)" fill="rgb(209,209,209)"/><path d=" M 1203.858 855.874 L 1210.523 855.874 L 1210.523 597.766 L 1203.465 606.313 L 1203.858 855.874 Z " fill="rgb(116,116,116)"/></g><g id="halls"><path d=" M 1012.514 21.408 L 1389.178 21.408 L 1389.178 141 L 1285.297 141 L 1285.297 408.493 L 1389.178 408.493 L 1012.514 408.493 L 1012.514 21.408 Z " fill="rgb(209,209,209)"/><path d=" M 1005.849 408.493 L 1012.514 408.493 L 1012.514 21.408 L 1005.849 25.519 L 1005.849 408.493 Z " fill="rgb(116,116,116)"/><path d=" M 1285.297 149.679 L 1285.297 141 L 1389.178 141 L 1381.988 149.679 L 1285.297 149.679 Z " fill="rgb(162,162,162)"/></g></g><g id="rooms tower B"><g id="elevators"><g opacity="0.25"><rect x="1327" y="536.917" width="52.133" height="50.652" transform="matrix(1,0,0,1,0,0)" fill="none" vector-effect="non-scaling-stroke" stroke-width="2" stroke-dasharray="5,5" stroke="rgb(0,0,0)" stroke-linejoin="round" stroke-linecap="round" stroke-miterlimit="3"/></g><g opacity="0.25"><path d=" M 1347.014 549.743 L 1343.988 553.589 L 1350.04 553.589 L 1347.014 549.743 Z  M 1356.092 549.743 L 1359.118 553.589 L 1362.144 549.743 L 1356.092 549.743 Z  M 1341.971 555.512 C 1340.859 555.512 1339.954 556.376 1339.954 557.436 L 1339.954 572.82 C 1339.954 573.88 1340.859 574.743 1341.971 574.743 L 1364.162 574.743 C 1365.273 574.743 1366.179 573.88 1366.179 572.82 L 1366.179 557.436 C 1366.179 556.376 1365.273 555.512 1364.162 555.512 L 1341.971 555.512 Z  M 1344.997 557.436 C 1346.109 557.436 1347.014 558.299 1347.014 559.359 C 1347.014 560.418 1346.109 561.282 1344.997 561.282 C 1346.712 561.282 1348.023 562.532 1348.023 564.166 L 1348.023 567.051 L 1347.014 568.012 L 1346.51 572.82 L 1343.484 572.82 L 1342.98 568.012 L 1341.971 567.051 L 1341.971 564.166 C 1341.971 562.532 1343.282 561.282 1344.997 561.282 C 1343.885 561.282 1342.98 560.418 1342.98 559.359 C 1342.98 558.299 1343.885 557.436 1344.997 557.436 Z  M 1353.066 557.436 C 1354.178 557.436 1355.084 558.299 1355.084 559.359 C 1355.084 560.418 1354.178 561.282 1353.066 561.282 C 1354.781 561.282 1356.092 562.532 1356.092 564.166 L 1356.092 567.051 L 1355.084 568.012 L 1354.579 572.82 L 1351.553 572.82 L 1351.049 568.012 L 1350.04 567.051 L 1350.04 564.166 C 1350.04 562.532 1351.352 561.282 1353.066 561.282 C 1351.955 561.282 1351.049 560.418 1351.049 559.359 C 1351.049 558.299 1351.955 557.436 1353.066 557.436 Z  M 1361.136 557.436 C 1362.247 557.436 1363.153 558.299 1363.153 559.359 C 1363.153 560.418 1362.247 561.282 1361.136 561.282 C 1362.85 561.282 1364.162 562.532 1364.162 564.166 L 1364.162 567.051 L 1363.153 568.012 L 1362.649 572.82 L 1359.623 572.82 L 1359.118 568.012 L 1358.11 567.051 L 1358.11 564.166 C 1358.11 562.532 1359.421 561.282 1361.136 561.282 C 1360.024 561.282 1359.118 560.418 1359.118 559.359 C 1359.118 558.299 1360.024 557.436 1361.136 557.436 Z " fill="rgb(0,0,0)"/></g></g><g id="women wc"><rect x="1023.534" y="524.188" width="46" height="59.552" transform="matrix(1,0,0,1,0,0)" fill="rgb(232,232,232)"/><path d=" M 1019 587.569 L 1023.534 583.74 L 1023.534 524.188 L 1019 527.308 L 1019 587.569 Z " fill="rgb(116,116,116)"/><path d=" M 1019 587.569 L 1023.534 583.74 L 1069.534 583.74 L 1064.687 587.569 L 1019 587.569 Z " fill="rgb(162,162,162)"/><g id="woman"><path d=" M 1048.409 566.464 L 1048.409 558.964 L 1052.159 558.964 L 1048.984 549.426 C 1048.641 548.406 1047.686 547.717 1046.609 547.714 L 1046.459 547.714 C 1045.381 547.713 1044.423 548.403 1044.084 549.426 L 1040.909 558.964 L 1044.659 558.964 L 1044.659 566.464 L 1048.409 566.464 Z " fill="rgb(0,0,0)"/><path d=" M 1046.534 546.464 C 1047.921 546.464 1049.034 545.351 1049.034 543.964 C 1049.034 542.576 1047.921 541.464 1046.534 541.464 C 1045.146 541.464 1044.034 542.576 1044.034 543.964 C 1044.034 545.351 1045.146 546.464 1046.534 546.464 Z " fill="rgb(0,0,0)"/></g></g><g id="men wc"><rect x="1079.534" y="524.188" width="46" height="59.552" transform="matrix(1,0,0,1,0,0)" fill="rgb(232,232,232)"/><path d=" M 1075 587.569 L 1079.534 583.74 L 1079.534 524.188 L 1075 527.308 L 1075 587.569 Z " fill="rgb(116,116,116)"/><path d=" M 1075 587.569 L 1079.534 583.74 L 1125.534 583.74 L 1120.687 587.569 L 1075 587.569 Z " fill="rgb(162,162,162)"/><g id="man"><path d=" M 1100.034 566.464 L 1100.034 557.089 L 1098.159 557.089 L 1098.159 550.214 C 1098.159 548.839 1099.284 547.714 1100.659 547.714 L 1104.409 547.714 C 1105.784 547.714 1106.909 548.839 1106.909 550.214 L 1106.909 557.089 L 1105.034 557.089 L 1105.034 566.464 L 1100.034 566.464 Z " fill="rgb(0,0,0)"/><path d=" M 1102.534 546.464 C 1103.921 546.464 1105.034 545.351 1105.034 543.964 C 1105.034 542.576 1103.921 541.464 1102.534 541.464 C 1101.146 541.464 1100.034 542.576 1100.034 543.964 C 1100.034 545.351 1101.146 546.464 1102.534 546.464 Z " fill="rgb(0,0,0)"/></g></g><path d=" M 1348.573 447.202 C 1346.604 447.202 1345 448.806 1345 450.775 L 1345 479.36 C 1345 481.328 1346.604 482.933 1348.573 482.933 L 1370.012 482.933 C 1371.98 482.933 1373.585 481.328 1373.585 479.36 L 1373.585 470.427 L 1370.012 470.427 L 1370.012 479.36 L 1348.573 479.36 L 1348.573 450.775 L 1370.012 450.775 L 1370.012 459.708 L 1373.585 459.708 L 1373.585 450.775 C 1373.585 448.806 1371.98 447.202 1370.012 447.202 L 1348.573 447.202 Z  M 1364.652 458.368 L 1355.719 465.067 L 1364.652 471.767 L 1364.652 466.854 L 1378.944 466.854 L 1378.944 463.281 L 1364.652 463.281 L 1364.652 458.368 Z " fill="rgb(0,0,0)" fill-opacity="0.25"/><g id="stairs"><g opacity="0.25"><rect x="1131" y="525" width="78.133" height="58.767" transform="matrix(1,0,0,1,0,0)" fill="none" vector-effect="non-scaling-stroke" stroke-width="2" stroke-dasharray="5,5" stroke="rgb(0,0,0)" stroke-linejoin="round" stroke-linecap="round" stroke-miterlimit="3"/></g><g style="mix-blend-mode:normal;" opacity="0.25"><g transform="matrix(1.489,0,0,1.489,1150.237,546.039)"><text transform="matrix(1,0,0,1,0,9.32)" style="font-family:&quot;Ubuntu&quot;;font-weight:500;font-size:10px;font-style:normal;fill:#000000;stroke:none;">stairs</text></g></g></g><g id="stairs"><g opacity="0.25"><rect x="611" y="525" width="78.133" height="58.767" transform="matrix(1,0,0,1,0,0)" fill="none" vector-effect="non-scaling-stroke" stroke-width="2" stroke-dasharray="5,5" stroke="rgb(0,0,0)" stroke-linejoin="round" stroke-linecap="round" stroke-miterlimit="3"/></g><g style="mix-blend-mode:normal;" opacity="0.25"><g transform="matrix(1.489,0,0,1.489,630.237,546.039)"><text transform="matrix(1,0,0,1,0,9.32)" style="font-family:&quot;Ubuntu&quot;;font-weight:500;font-size:10px;font-style:normal;fill:#000000;stroke:none;">stairs</text></g></g></g><g id="buffet"><rect x="797.534" y="524.188" width="216.462" height="59.552" transform="matrix(1,0,0,1,0,0)" fill="rgb(232,232,232)"/><path d=" M 793 587.569 L 797.534 583.74 L 797.534 524.188 L 793 527.308 L 793 587.569 Z " fill="rgb(116,116,116)"/><path d=" M 793 587.569 L 797.534 583.74 L 1014 583.74 L 1009.153 587.569 L 793 587.569 Z " fill="rgb(162,162,162)"/><g transform="matrix(1.489,0,0,1.489,878.867,543.95)"><text transform="matrix(1,0,0,1,0,11.184)" style="font-family:&quot;Ubuntu&quot;;font-weight:500;font-size:12px;font-style:normal;fill:#000000;stroke:none;">buffet</text></g></g><g id="room_9"><rect x="699.534" y="524.188" width="88.466" height="59.552" transform="matrix(1,0,0,1,0,0)" fill="rgb(232,232,232)"/><path d=" M 695 587.569 L 699.534 583.74 L 699.534 524.188 L 695 527.307 L 695 587.569 Z " fill="rgb(116,116,116)"/><path d=" M 695 587.569 L 699.534 583.74 L 788 583.74 L 783.154 587.569 L 695 587.569 Z " fill="rgb(162,162,162)"/><g transform="matrix(1.489,0,0,1.489,737.067,543.95)"><text transform="matrix(1,0,0,1,0,11.184)" style="font-family:&quot;Ubuntu&quot;;font-weight:500;font-size:12px;font-style:normal;fill:#000000;stroke:none;">9</text></g></g><g id="room_8"><rect x="512.534" y="524.188" width="93.466" height="59.552" transform="matrix(1,0,0,1,0,0)" fill="rgb(232,232,232)"/><path d=" M 508 587.569 L 512.534 583.74 L 512.534 524.188 L 508 527.307 L 508 587.569 Z " fill="rgb(116,116,116)"/><path d=" M 508 587.569 L 512.534 583.74 L 606 583.74 L 601.154 587.569 L 508 587.569 Z " fill="rgb(162,162,162)"/><g transform="matrix(1.489,0,0,1.489,552.567,543.95)"><text transform="matrix(1,0,0,1,0,11.184)" style="font-family:&quot;Ubuntu&quot;;font-weight:500;font-size:12px;font-style:normal;fill:#000000;stroke:none;">8</text></g></g><g id="room_7"><rect x="414.057" y="524.188" width="88.466" height="59.552" transform="matrix(1,0,0,1,0,0)" fill="rgb(232,232,232)"/><path d=" M 409.523 587.569 L 414.057 583.74 L 414.057 524.188 L 409.523 527.307 L 409.523 587.569 Z " fill="rgb(116,116,116)"/><path d=" M 409.523 587.569 L 414.056 583.74 L 502.523 583.74 L 497.676 587.569 L 409.523 587.569 Z " fill="rgb(162,162,162)"/><g transform="matrix(1.489,0,0,1.489,451.59,543.95)"><text transform="matrix(1,0,0,1,0,11.184)" style="font-family:&quot;Ubuntu&quot;;font-weight:500;font-size:12px;font-style:normal;fill:#000000;stroke:none;">7</text></g></g><g id="room_6"><rect x="414.057" y="418.493" width="88.466" height="59.552" transform="matrix(1,0,0,1,0,0)" fill="rgb(232,232,232)"/><path d=" M 409.523 481.875 L 414.057 478.045 L 414.057 418.493 L 409.523 421.613 L 409.523 481.875 Z " fill="rgb(116,116,116)"/><path d=" M 409.523 481.875 L 414.056 478.045 L 502.523 478.045 L 497.676 481.875 L 409.523 481.875 Z " fill="rgb(162,162,162)"/><g transform="matrix(1.489,0,0,1.489,451.59,438.256)"><text transform="matrix(1,0,0,1,0,11.184)" style="font-family:&quot;Ubuntu&quot;;font-weight:500;font-size:12px;font-style:normal;fill:#000000;stroke:none;">6</text></g></g><g id="room_5"><rect x="512.534" y="418.493" width="88.466" height="59.552" transform="matrix(1,0,0,1,0,0)" fill="rgb(232,232,232)"/><path d=" M 508 481.875 L 512.534 478.045 L 512.534 418.493 L 508 421.613 L 508 481.875 Z " fill="rgb(116,116,116)"/><path d=" M 508 481.875 L 512.534 478.045 L 601 478.045 L 596.154 481.875 L 508 481.875 Z " fill="rgb(162,162,162)"/><g transform="matrix(1.489,0,0,1.489,550.067,438.256)"><text transform="matrix(1,0,0,1,0,11.184)" style="font-family:&quot;Ubuntu&quot;;font-weight:500;font-size:12px;font-style:normal;fill:#000000;stroke:none;">5</text></g></g><g id="room_4"><rect x="611.011" y="418.493" width="88.466" height="59.552" transform="matrix(1,0,0,1,0,0)" fill="rgb(232,232,232)"/><path d=" M 606.477 481.875 L 611.011 478.045 L 611.011 418.493 L 606.477 421.613 L 606.477 481.875 Z " fill="rgb(116,116,116)"/><path d=" M 606.477 481.875 L 611.011 478.045 L 699.477 478.045 L 694.631 481.875 L 606.477 481.875 Z " fill="rgb(162,162,162)"/><g transform="matrix(1.489,0,0,1.489,648.545,438.256)"><text transform="matrix(1,0,0,1,0,11.184)" style="font-family:&quot;Ubuntu&quot;;font-weight:500;font-size:12px;font-style:normal;fill:#000000;stroke:none;">4</text></g></g><g id="room_3"><rect x="709.489" y="418.493" width="88.466" height="59.552" transform="matrix(1,0,0,1,0,0)" fill="rgb(232,232,232)"/><path d=" M 704.955 481.875 L 709.489 478.045 L 709.489 418.493 L 704.955 421.613 L 704.955 481.875 Z " fill="rgb(116,116,116)"/><path d=" M 704.955 481.875 L 709.488 478.045 L 797.955 478.045 L 793.108 481.875 L 704.955 481.875 Z " fill="rgb(162,162,162)"/><g transform="matrix(1.489,0,0,1.489,747.022,438.256)"><text transform="matrix(1,0,0,1,0,11.184)" style="font-family:&quot;Ubuntu&quot;;font-weight:500;font-size:12px;font-style:normal;fill:#000000;stroke:none;">3</text></g></g><g id="room_2"><rect x="807.966" y="418.493" width="88.466" height="59.552" transform="matrix(1,0,0,1,0,0)" fill="rgb(232,232,232)"/><path d=" M 803.432 481.875 L 807.966 478.045 L 807.966 418.493 L 803.432 421.613 L 803.432 481.875 Z " fill="rgb(116,116,116)"/><path d=" M 803.432 481.875 L 807.966 478.045 L 896.432 478.045 L 891.585 481.875 L 803.432 481.875 Z " fill="rgb(162,162,162)"/><g transform="matrix(1.489,0,0,1.489,845.499,438.256)"><text transform="matrix(1,0,0,1,0,11.184)" style="font-family:&quot;Ubuntu&quot;;font-weight:500;font-size:12px;font-style:normal;fill:#000000;stroke:none;">2</text></g></g><g id="room_1"><rect x="906.443" y="418.493" width="106.557" height="59.552" transform="matrix(1,0,0,1,0,0)" fill="rgb(232,232,232)"/><path d=" M 901.909 481.875 L 906.443 478.045 L 906.443 418.493 L 901.909 421.613 L 901.909 481.875 Z " fill="rgb(116,116,116)"/><path d=" M 901.909 481.875 L 906.443 478.045 L 1013 478.045 L 1008.154 481.875 L 901.909 481.875 Z " fill="rgb(162,162,162)"/><g transform="matrix(1.489,0,0,1.489,953.022,438.256)"><text transform="matrix(1,0,0,1,0,11.184)" style="font-family:&quot;Ubuntu&quot;;font-weight:500;font-size:12px;font-style:normal;fill:#000000;stroke:none;">1</text></g></g><g id="newsstand"><rect x="1079.534" y="419" width="146.466" height="31.691" transform="matrix(1,0,0,1,0,0)" fill="rgb(232,232,232)"/><path d=" M 1075 454.52 L 1079.534 450.691 L 1079.534 419 L 1075 422.119 L 1075 454.52 Z " fill="rgb(116,116,116)"/><path d=" M 1075 454.52 L 1079.534 450.691 L 1226 450.691 L 1221.154 454.52 L 1075 454.52 Z " fill="rgb(162,162,162)"/><g transform="matrix(1.489,0,0,1.489,1106.615,424.832)"><text transform="matrix(1,0,0,1,0,11.184)" style="font-family:&quot;Ubuntu&quot;;font-weight:500;font-size:12px;font-style:normal;fill:#000000;stroke:none;">newsstand</text></g></g></g><g id="rooms halls"><g id="hall_A"><rect x="1095.534" y="31.408" width="283.982" height="94.282" transform="matrix(1,0,0,1,0,0)" fill="rgb(232,232,232)"/><path d=" M 1091 129.52 L 1095.534 125.691 L 1095.534 31.408 L 1091 34.528 L 1091 129.52 Z " fill="rgb(116,116,116)"/><path d=" M 1091 129.52 L 1095.534 125.691 L 1379.515 125.691 L 1374.669 129.521 L 1091 129.52 Z " fill="rgb(162,162,162)"/><g transform="matrix(1.489,0,0,1.489,1230.135,68.536)"><text transform="matrix(1,0,0,1,0,11.184)" style="font-family:&quot;Ubuntu&quot;;font-weight:500;font-size:12px;font-style:normal;fill:#000000;stroke:none;">A</text></g></g><g id="hall_B"><rect x="1095.534" y="140" width="179.982" height="126.282" transform="matrix(1,0,0,1,0,0)" fill="rgb(232,232,232)"/><path d=" M 1091 270.112 L 1095.534 266.282 L 1095.534 140 L 1091 143.119 L 1091 270.112 Z " fill="rgb(116,116,116)"/><path d=" M 1091 270.112 L 1095.534 266.282 L 1275.516 266.282 L 1270.669 270.112 L 1091 270.112 Z " fill="rgb(162,162,162)"/><g transform="matrix(1.489,0,0,1.489,1178.135,193.128)"><text transform="matrix(1,0,0,1,0,11.184)" style="font-family:&quot;Ubuntu&quot;;font-weight:500;font-size:12px;font-style:normal;fill:#000000;stroke:none;">B</text></g></g><g id="hall_C"><rect x="1094.374" y="276" width="179.982" height="128.282" transform="matrix(1,0,0,1,0,0)" fill="rgb(232,232,232)"/><path d=" M 1089.84 408.112 L 1094.374 404.282 L 1094.374 276 L 1089.84 279.119 L 1089.84 408.112 Z " fill="rgb(116,116,116)"/><path d=" M 1089.84 408.112 L 1094.373 404.282 L 1274.355 404.282 L 1269.509 408.112 L 1089.84 408.112 Z " fill="rgb(162,162,162)"/><g transform="matrix(1.489,0,0,1.489,1176.975,330.128)"><text transform="matrix(1,0,0,1,0,11.184)" style="font-family:&quot;Ubuntu&quot;;font-weight:500;font-size:12px;font-style:normal;fill:#000000;stroke:none;">C</text></g></g><g id="room_26"><rect x="1027.534" y="31.408" width="58.306" height="46.6" transform="matrix(1,0,0,1,0,0)" fill="rgb(232,232,232)"/><path d=" M 1023 81.838 L 1027.534 78.008 L 1027.534 31.408 L 1023 34.528 L 1023 81.838 Z " fill="rgb(116,116,116)"/><path d=" M 1023 81.838 L 1027.534 78.008 L 1085.84 78.008 L 1080.993 81.838 L 1023 81.838 Z " fill="rgb(162,162,162)"/><g transform="matrix(1.489,0,0,1.489,1044.776,44.695)"><text transform="matrix(1,0,0,1,0,11.184)" style="font-family:&quot;Ubuntu&quot;;font-weight:500;font-size:12px;font-style:normal;fill:#000000;stroke:none;">26</text></g></g></g><g id="roms connector"><g id="printing house"><rect x="1271.192" y="706" width="44.306" height="135.6" transform="matrix(1,0,0,1,0,0)" fill="rgb(232,232,232)"/><path d=" M 1266.658 845.43 L 1271.192 841.6 L 1271.192 706 L 1266.658 709.119 L 1266.658 845.43 Z " fill="rgb(116,116,116)"/><path d=" M 1266.658 845.43 L 1271.192 841.6 L 1315.498 841.6 L 1310.651 845.43 L 1266.658 845.43 Z " fill="rgb(162,162,162)"/><g transform="matrix(0,1.489,-1.489,0,1301.689,720.623)"><text transform="matrix(1,0,0,1,0,9.32)" style="font-family:&quot;Ubuntu&quot;;font-weight:500;font-size:10px;font-style:normal;fill:#000000;stroke:none;">printing house</text></g></g><g id="cloakroom"><rect x="1271.192" y="608" width="44.306" height="88.885" transform="matrix(1,0,0,1,0,0)" fill="rgb(232,232,232)"/><path d=" M 1266.658 700.715 L 1271.192 696.885 L 1271.192 608 L 1266.658 611.119 L 1266.658 700.715 Z " fill="rgb(116,116,116)"/><path d=" M 1266.658 700.715 L 1271.192 696.885 L 1315.498 696.885 L 1310.651 700.715 L 1266.658 700.715 Z " fill="rgb(162,162,162)"/><g transform="matrix(0,1.489,-1.489,0,1301.689,614.908)"><text transform="matrix(1,0,0,1,0,9.32)" style="font-family:&quot;Ubuntu&quot;;font-weight:500;font-size:10px;font-style:normal;fill:#000000;stroke:none;">cloakroom</text></g></g></g><g id="rooms tower A"><g id="women wc"><rect x="1098.534" y="866" width="51.466" height="59.552" transform="matrix(1,0,0,1,0,0)" fill="rgb(232,232,232)"/><path d=" M 1094 929.381 L 1098.534 925.552 L 1098.534 866 L 1094 869.119 L 1094 929.381 Z " fill="rgb(116,116,116)"/><path d=" M 1094 929.381 L 1098.534 925.552 L 1150 925.552 L 1145.154 929.381 L 1094 929.381 Z " fill="rgb(162,162,162)"/><g id="woman"><path d=" M 1126.142 908.276 L 1126.142 900.776 L 1129.892 900.776 L 1126.717 891.238 C 1126.374 890.217 1125.419 889.529 1124.342 889.526 L 1124.192 889.526 C 1123.114 889.525 1122.157 890.215 1121.817 891.238 L 1118.642 900.776 L 1122.392 900.776 L 1122.392 908.276 L 1126.142 908.276 Z " fill="rgb(0,0,0)"/><path d=" M 1124.267 888.276 C 1125.654 888.276 1126.767 887.163 1126.767 885.776 C 1126.767 884.388 1125.654 883.276 1124.267 883.276 C 1122.879 883.276 1121.767 884.388 1121.767 885.776 C 1121.767 887.163 1122.879 888.276 1124.267 888.276 Z " fill="rgb(0,0,0)"/></g></g><g id="men wc"><rect x="1159.534" y="866" width="51.466" height="59.552" transform="matrix(1,0,0,1,0,0)" fill="rgb(232,232,232)"/><path d=" M 1155 929.381 L 1159.534 925.552 L 1159.534 866 L 1155 869.119 L 1155 929.381 Z " fill="rgb(116,116,116)"/><path d=" M 1155 929.381 L 1159.534 925.552 L 1211 925.552 L 1206.154 929.381 L 1155 929.381 Z " fill="rgb(162,162,162)"/><g id="man"><path d=" M 1182.767 908.276 L 1182.767 898.901 L 1180.892 898.901 L 1180.892 892.026 C 1180.892 890.651 1182.017 889.526 1183.392 889.526 L 1187.142 889.526 C 1188.517 889.526 1189.642 890.651 1189.642 892.026 L 1189.642 898.901 L 1187.767 898.901 L 1187.767 908.276 L 1182.767 908.276 Z " fill="rgb(0,0,0)"/><path d=" M 1185.267 888.276 C 1186.654 888.276 1187.767 887.163 1187.767 885.776 C 1187.767 884.388 1186.654 883.276 1185.267 883.276 C 1183.879 883.276 1182.767 884.388 1182.767 885.776 C 1182.767 887.163 1183.879 888.276 1185.267 888.276 Z " fill="rgb(0,0,0)"/></g></g><g id="elevators"><g opacity="0.25"><rect x="1268" y="866" width="51.133" height="50.652" transform="matrix(1,0,0,1,0,0)" fill="none" vector-effect="non-scaling-stroke" stroke-width="2" stroke-dasharray="5,5" stroke="rgb(0,0,0)" stroke-linejoin="round" stroke-linecap="round" stroke-miterlimit="3"/></g><g opacity="0.25"><path d=" M 1287.514 878.826 L 1284.488 882.672 L 1290.54 882.672 L 1287.514 878.826 Z  M 1296.592 878.826 L 1299.618 882.672 L 1302.644 878.826 L 1296.592 878.826 Z  M 1282.471 884.595 C 1281.359 884.595 1280.454 885.459 1280.454 886.519 L 1280.454 901.903 C 1280.454 902.963 1281.359 903.826 1282.471 903.826 L 1304.662 903.826 C 1305.773 903.826 1306.679 902.963 1306.679 901.903 L 1306.679 886.519 C 1306.679 885.459 1305.773 884.595 1304.662 884.595 L 1282.471 884.595 Z  M 1285.497 886.519 C 1286.609 886.519 1287.514 887.382 1287.514 888.442 C 1287.514 889.501 1286.609 890.365 1285.497 890.365 C 1287.212 890.365 1288.523 891.615 1288.523 893.249 L 1288.523 896.134 L 1287.514 897.095 L 1287.01 901.903 L 1283.984 901.903 L 1283.48 897.095 L 1282.471 896.134 L 1282.471 893.249 C 1282.471 891.615 1283.782 890.365 1285.497 890.365 C 1284.385 890.365 1283.48 889.501 1283.48 888.442 C 1283.48 887.382 1284.385 886.519 1285.497 886.519 Z  M 1293.566 886.519 C 1294.678 886.519 1295.584 887.382 1295.584 888.442 C 1295.584 889.501 1294.678 890.365 1293.566 890.365 C 1295.281 890.365 1296.592 891.615 1296.592 893.249 L 1296.592 896.134 L 1295.584 897.095 L 1295.079 901.903 L 1292.053 901.903 L 1291.549 897.095 L 1290.54 896.134 L 1290.54 893.249 C 1290.54 891.615 1291.852 890.365 1293.566 890.365 C 1292.455 890.365 1291.549 889.501 1291.549 888.442 C 1291.549 887.382 1292.455 886.519 1293.566 886.519 Z  M 1301.636 886.519 C 1302.747 886.519 1303.653 887.382 1303.653 888.442 C 1303.653 889.501 1302.747 890.365 1301.636 890.365 C 1303.35 890.365 1304.662 891.615 1304.662 893.249 L 1304.662 896.134 L 1303.653 897.095 L 1303.149 901.903 L 1300.123 901.903 L 1299.618 897.095 L 1298.61 896.134 L 1298.61 893.249 C 1298.61 891.615 1299.921 890.365 1301.636 890.365 C 1300.524 890.365 1299.618 889.501 1299.618 888.442 C 1299.618 887.382 1300.524 886.519 1301.636 886.519 Z " fill="rgb(0,0,0)"/></g></g><g id="stairs"><g opacity="0.25"><rect x="1323.867" y="866" width="51.133" height="50.652" transform="matrix(1,0,0,1,0,0)" fill="none" vector-effect="non-scaling-stroke" stroke-width="2" stroke-dasharray="5,5" stroke="rgb(0,0,0)" stroke-linejoin="round" stroke-linecap="round" stroke-miterlimit="3"/></g><g style="mix-blend-mode:normal;" opacity="0.25"><g transform="matrix(1.489,0,0,1.489,1329.604,882.982)"><text transform="matrix(1,0,0,1,0,9.32)" style="font-family:&quot;Ubuntu&quot;;font-weight:500;font-size:10px;font-style:normal;fill:#000000;stroke:none;">stairs</text></g></g></g><g id="room_15"><rect x="1098.848" y="985" width="44.306" height="46.552" transform="matrix(1,0,0,1,0,0)" fill="rgb(232,232,232)"/><path d=" M 1094.314 1035.381 L 1098.848 1031.552 L 1098.848 985 L 1094.314 988.119 L 1094.314 1035.381 Z " fill="rgb(116,116,116)"/><path d=" M 1094.314 1035.381 L 1098.848 1031.552 L 1143.154 1031.552 L 1138.307 1035.381 L 1094.314 1035.381 Z " fill="rgb(162,162,162)"/><g transform="matrix(1.489,0,0,1.489,1109.09,998.262)"><text transform="matrix(1,0,0,1,0,11.184)" style="font-family:&quot;Ubuntu&quot;;font-weight:500;font-size:12px;font-style:normal;fill:#000000;stroke:none;">15</text></g></g><g id="room_14"><rect x="1152.866" y="984.952" width="44.306" height="46.6" transform="matrix(1,0,0,1,0,0)" fill="rgb(232,232,232)"/><path d=" M 1148.332 1035.381 L 1152.866 1031.552 L 1152.866 984.952 L 1148.332 988.071 L 1148.332 1035.381 Z " fill="rgb(116,116,116)"/><path d=" M 1148.332 1035.381 L 1152.866 1031.552 L 1197.171 1031.552 L 1192.325 1035.381 L 1148.332 1035.381 Z " fill="rgb(162,162,162)"/><g transform="matrix(1.489,0,0,1.489,1163.108,998.238)"><text transform="matrix(1,0,0,1,0,11.184)" style="font-family:&quot;Ubuntu&quot;;font-weight:500;font-size:12px;font-style:normal;fill:#000000;stroke:none;">14</text></g></g><g id="room_13"><rect x="1207.534" y="984.952" width="44.306" height="46.6" transform="matrix(1,0,0,1,0,0)" fill="rgb(232,232,232)"/><path d=" M 1203 1035.381 L 1207.534 1031.552 L 1207.534 984.952 L 1203 988.071 L 1203 1035.381 Z " fill="rgb(116,116,116)"/><path d=" M 1203 1035.381 L 1207.534 1031.552 L 1251.84 1031.552 L 1246.993 1035.381 L 1203 1035.381 Z " fill="rgb(162,162,162)"/><g transform="matrix(1.489,0,0,1.489,1217.776,998.238)"><text transform="matrix(1,0,0,1,0,11.184)" style="font-family:&quot;Ubuntu&quot;;font-weight:500;font-size:12px;font-style:normal;fill:#000000;stroke:none;">13</text></g></g><g id="room_12"><rect x="1262.139" y="984.952" width="44.306" height="46.6" transform="matrix(1,0,0,1,0,0)" fill="rgb(232,232,232)"/><path d=" M 1257.605 1035.381 L 1262.139 1031.552 L 1262.139 984.952 L 1257.605 988.071 L 1257.605 1035.381 Z " fill="rgb(116,116,116)"/><path d=" M 1257.605 1035.381 L 1262.139 1031.552 L 1306.444 1031.552 L 1301.598 1035.381 L 1257.605 1035.381 Z " fill="rgb(162,162,162)"/><g transform="matrix(1.489,0,0,1.489,1272.381,998.238)"><text transform="matrix(1,0,0,1,0,11.184)" style="font-family:&quot;Ubuntu&quot;;font-weight:500;font-size:12px;font-style:normal;fill:#000000;stroke:none;">12</text></g></g><g id="room_11"><rect x="1316.743" y="984.952" width="58.306" height="46.6" transform="matrix(1,0,0,1,0,0)" fill="rgb(232,232,232)"/><path d=" M 1312.209 1035.381 L 1316.743 1031.552 L 1316.743 984.952 L 1312.209 988.071 L 1312.209 1035.381 Z " fill="rgb(116,116,116)"/><path d=" M 1312.209 1035.381 L 1316.743 1031.552 L 1375.049 1031.552 L 1370.203 1035.381 L 1312.209 1035.381 Z " fill="rgb(162,162,162)"/><g transform="matrix(1.489,0,0,1.489,1333.986,998.238)"><text transform="matrix(1,0,0,1,0,11.184)" style="font-family:&quot;Ubuntu&quot;;font-weight:500;font-size:12px;font-style:normal;fill:#000000;stroke:none;">11</text></g></g></g><g id="rooms glass halls"><g id="room_10"><path d=" M 1424.534 866.854 L 1424.534 817 L 1705 817 L 1705 868.263 L 1705 1079.576 L 1594.396 1079.576 L 1594.396 900.664 L 1539.647 900.664 L 1539.647 1079.576 L 1424.534 1079.576 L 1424.534 866.854 Z " fill="rgb(232,232,232)"/><path d=" M 1420 1083.406 L 1424.534 1079.576 L 1424.534 817 L 1420 820.119 L 1420 1083.406 Z " fill="rgb(116,116,116)"/><path d=" M 1589.862 1083.406 L 1594.396 1079.576 L 1594.396 900.664 L 1589.862 903.784 L 1589.862 1083.406 Z " fill="rgb(116,116,116)"/><path d=" M 1420 1083.406 L 1424.534 1079.576 L 1539.647 1079.576 L 1534.801 1083.406 L 1420 1083.406 Z " fill="rgb(162,162,162)"/><path d=" M 1539.647 905 L 1539.647 900.664 L 1594.396 900.664 L 1589.873 905 L 1539.647 905 Z " fill="rgb(162,162,162)"/><path d=" M 1589.862 1083.406 L 1594.396 1079.576 L 1705 1079.576 L 1700.154 1083.406 L 1589.862 1083.406 Z " fill="rgb(162,162,162)"/><g transform="matrix(1.489,0,0,1.489,1552.857,846.827)"><text transform="matrix(1,0,0,1,0,11.184)" style="font-family:&quot;Ubuntu&quot;;font-weight:500;font-size:12px;font-style:normal;fill:#000000;stroke:none;">10</text></g></g><g id="stairs"><g opacity="0.25"><rect x="1550.372" y="939" width="30" height="112" transform="matrix(1,0,0,1,0,0)" fill="none" vector-effect="non-scaling-stroke" stroke-width="2" stroke-dasharray="5,5" stroke="rgb(0,0,0)" stroke-linejoin="round" stroke-linecap="round" stroke-miterlimit="3"/></g><g style="mix-blend-mode:normal;" opacity="0.25"><g transform="matrix(0,1.489,-1.489,0,1573.716,974.893)"><text transform="matrix(1,0,0,1,0,9.32)" style="font-family:&quot;Ubuntu&quot;;font-weight:500;font-size:10px;font-style:normal;fill:#000000;stroke:none;">stairs</text></g></g></g></g><g id="rooms computer center"><g id="room_18"><rect x="296.534" y="866.619" width="216.462" height="59.552" transform="matrix(1,0,0,1,0,0)" fill="rgb(232,232,232)"/><path d=" M 292 930 L 296.534 926.17 L 296.534 866.619 L 292 869.738 L 292 930 Z " fill="rgb(116,116,116)"/><path d=" M 292 930 L 296.534 926.17 L 513 926.17 L 508.153 930 L 292 930 Z " fill="rgb(162,162,162)"/><g transform="matrix(1.489,0,0,1.489,392.855,886.381)"><text transform="matrix(1,0,0,1,0,11.184)" style="font-family:&quot;Ubuntu&quot;;font-weight:500;font-size:12px;font-style:normal;fill:#000000;stroke:none;">18</text></g></g><g id="room_17"><rect x="522.534" y="866.619" width="216.462" height="59.552" transform="matrix(1,0,0,1,0,0)" fill="rgb(232,232,232)"/><path d=" M 518 930 L 522.534 926.17 L 522.534 866.619 L 518 869.738 L 518 930 Z " fill="rgb(116,116,116)"/><path d=" M 518 930 L 522.534 926.17 L 739 926.17 L 734.153 930 L 518 930 Z " fill="rgb(162,162,162)"/><g transform="matrix(1.489,0,0,1.489,618.855,886.381)"><text transform="matrix(1,0,0,1,0,11.184)" style="font-family:&quot;Ubuntu&quot;;font-weight:500;font-size:12px;font-style:normal;fill:#000000;stroke:none;">17</text></g></g><g id="room_16"><rect x="748.534" y="866.619" width="216.462" height="59.552" transform="matrix(1,0,0,1,0,0)" fill="rgb(232,232,232)"/><path d=" M 744 930 L 748.534 926.17 L 748.534 866.619 L 744 869.738 L 744 930 Z " fill="rgb(116,116,116)"/><path d=" M 744 930 L 748.534 926.17 L 965 926.17 L 960.153 930 L 744 930 Z " fill="rgb(162,162,162)"/><g transform="matrix(1.489,0,0,1.489,844.855,886.381)"><text transform="matrix(1,0,0,1,0,11.184)" style="font-family:&quot;Ubuntu&quot;;font-weight:500;font-size:12px;font-style:normal;fill:#000000;stroke:none;">16</text></g></g><g id="room_22"><rect x="296.534" y="983.774" width="259.466" height="56.432" transform="matrix(1,0,0,1,0,0)" fill="rgb(232,232,232)"/><path d=" M 292 1044.036 L 296.534 1040.206 L 296.534 983.774 L 292 986.893 L 292 1044.036 Z " fill="rgb(116,116,116)"/><path d=" M 292 1044.036 L 296.534 1040.206 L 555.847 1040.206 L 551 1044.036 L 292 1044.036 Z " fill="rgb(162,162,162)"/><g transform="matrix(1.489,0,0,1.489,414.357,1001.976)"><text transform="matrix(1,0,0,1,0,11.184)" style="font-family:&quot;Ubuntu&quot;;font-weight:500;font-size:12px;font-style:normal;fill:#000000;stroke:none;">22</text></g></g><g id="room_23"><rect x="296.534" y="1049.309" width="153.466" height="59.552" transform="matrix(1,0,0,1,0,0)" fill="rgb(232,232,232)"/><path d=" M 292 1112.691 L 296.534 1108.861 L 296.534 1049.309 L 292 1052.429 L 292 1112.691 Z " fill="rgb(116,116,116)"/><path d=" M 292 1112.691 L 296.534 1108.861 L 449.847 1108.861 L 445 1112.691 L 292 1112.691 Z " fill="rgb(162,162,162)"/><g transform="matrix(1.489,0,0,1.489,361.357,1069.071)"><text transform="matrix(1,0,0,1,0,11.184)" style="font-family:&quot;Ubuntu&quot;;font-weight:500;font-size:12px;font-style:normal;fill:#000000;stroke:none;">23</text></g></g><g id="room_24"><rect x="236.267" y="1165.856" width="90.733" height="59.552" transform="matrix(1,0,0,1,0,0)" fill="rgb(232,232,232)"/><path d=" M 234 1229.237 L 238.534 1225.408 L 238.534 1165.856 L 234 1168.975 L 234 1229.237 Z " fill="rgb(116,116,116)"/><path d=" M 234 1229.237 L 238.534 1225.408 L 327 1225.408 L 322.154 1229.237 L 234 1229.237 Z " fill="rgb(162,162,162)"/><g transform="matrix(1.489,0,0,1.489,269.723,1185.618)"><text transform="matrix(1,0,0,1,0,11.184)" style="font-family:&quot;Ubuntu&quot;;font-weight:500;font-size:12px;font-style:normal;fill:#000000;stroke:none;">24</text></g></g><g id="room_25"><path d=" M 336.534 1165.856 L 412 1165.856 L 412 1119 L 609 1119 L 609 1225.408 L 336.534 1225.408 L 336.534 1165.856 Z " fill="rgb(232,232,232)"/><path d=" M 332 1229.237 L 336.534 1225.408 L 336.534 1165.856 L 332 1168.975 L 332 1229.237 Z " fill="rgb(116,116,116)"/><path d=" M 407.466 1165.83 L 412 1165.856 L 412 1119 L 407.466 1122.119 L 407.466 1165.83 Z " fill="rgb(116,116,116)"/><path d=" M 332 1229.237 L 336.534 1225.408 L 609 1225.408 L 604.153 1229.237 L 332 1229.237 Z " fill="rgb(162,162,162)"/><g transform="matrix(1.489,0,0,1.489,460.857,1162.19)"><text transform="matrix(1,0,0,1,0,11.184)" style="font-family:&quot;Ubuntu&quot;;font-weight:500;font-size:12px;font-style:normal;fill:#000000;stroke:none;">25</text></g></g><g id="room_20"><rect x="619.413" y="1165.856" width="276.587" height="59.552" transform="matrix(1,0,0,1,0,0)" fill="rgb(232,232,232)"/><path d=" M 614.879 1229.237 L 619.413 1225.408 L 619.413 1165.856 L 614.879 1168.975 L 614.879 1229.237 Z " fill="rgb(116,116,116)"/><path d=" M 614.879 1229.237 L 619.413 1225.408 L 896 1225.408 L 891.153 1229.237 L 614.879 1229.237 Z " fill="rgb(162,162,162)"/><g transform="matrix(1.489,0,0,1.489,745.796,1185.618)"><text transform="matrix(1,0,0,1,0,11.184)" style="font-family:&quot;Ubuntu&quot;;font-weight:500;font-size:12px;font-style:normal;fill:#000000;stroke:none;">20</text></g></g><g id="room_21"><path d=" M 619.413 986 L 843 986 L 843 1109 L 771.269 1109 L 771.269 1157.031 L 619.413 1157.031 L 619.413 1101.946 L 619.413 986 Z " fill="rgb(232,232,232)"/><path d=" M 614.879 1160.861 L 619.413 1157.031 L 619.413 986 L 614.879 989.119 L 614.879 1160.861 Z " fill="rgb(116,116,116)"/><path d=" M 614.879 1160.861 L 619.413 1157.031 L 771.269 1157.031 L 766.423 1160.861 L 614.879 1160.861 Z " fill="rgb(162,162,162)"/><path d=" M 771.269 1112.83 L 771.269 1109 L 843 1109 L 838.154 1112.83 L 771.269 1112.83 Z " fill="rgb(162,162,162)"/><g transform="matrix(1.489,0,0,1.489,719.296,1061.502)"><text transform="matrix(1,0,0,1,0,11.184)" style="font-family:&quot;Ubuntu&quot;;font-weight:500;font-size:12px;font-style:normal;fill:#000000;stroke:none;">21</text></g></g><g id="room_19"><rect x="815.005" y="1075.444" width="240.439" height="59.552" transform="matrix(0,1,-1,0,2040.444,169.995)" fill="rgb(232,232,232)"/><path d=" M 900.915 1229.237 L 905.448 1225.408 L 905.448 985 L 900.915 988.119 L 900.915 1229.237 Z " fill="rgb(116,116,116)"/><path d=" M 900.915 1229.237 L 905.448 1225.408 L 964.915 1225.408 L 960.068 1229.237 L 900.915 1229.237 Z " fill="rgb(162,162,162)"/><g transform="matrix(1.489,0,0,1.489,923.314,1095.206)"><text transform="matrix(1,0,0,1,0,11.184)" style="font-family:&quot;Ubuntu&quot;;font-weight:500;font-size:12px;font-style:normal;fill:#000000;stroke:none;">19</text></g></g><g id="stairs" style="opacity:0.25;"><rect x="455" y="1049.309" width="101" height="60" transform="matrix(1,0,0,1,0,0)" fill="none" vector-effect="non-scaling-stroke" stroke-width="2" stroke-dasharray="5,5" stroke="rgb(0,0,0)" stroke-linejoin="round" stroke-linecap="round" stroke-miterlimit="3"/><g transform="matrix(1.489,0,0,1.489,481.47,1069.296)"><text transform="matrix(1,0,0,1,0,11.184)" style="font-family:&quot;Ubuntu&quot;;font-weight:500;font-size:12px;font-style:normal;fill:#000000;stroke:none;">stairs</text></g></g><g opacity="0.25"><path d=" M 244 888.178 C 244 889.628 245.182 890.809 246.632 890.809 L 267.684 890.809 C 269.134 890.809 270.316 889.628 270.316 888.178 L 270.316 872.388 C 270.316 870.938 269.134 869.757 267.684 869.757 L 261.105 869.757 L 261.105 872.388 L 267.684 872.388 L 267.684 888.178 L 246.632 888.178 L 246.632 872.388 L 253.211 872.388 L 253.211 869.757 L 246.632 869.757 C 245.182 869.757 244 870.938 244 872.388 L 244 888.178 Z  M 252.224 876.336 L 257.158 882.915 L 262.092 876.336 L 258.474 876.336 L 258.474 865.809 L 255.842 865.809 L 255.842 876.336 L 252.224 876.336 Z " fill="rgb(0,0,0)"/></g></g><g id="rooms corridor" style="opacity:0.25;"><path d=" M 1016.477 962.781 C 1016.477 964.231 1017.659 965.412 1019.109 965.412 L 1040.162 965.412 C 1041.612 965.412 1042.793 964.231 1042.793 962.781 L 1042.793 946.991 C 1042.793 945.541 1041.612 944.36 1040.162 944.36 L 1033.583 944.36 L 1033.583 946.991 L 1040.162 946.991 L 1040.162 962.781 L 1019.109 962.781 L 1019.109 946.991 L 1025.688 946.991 L 1025.688 944.36 L 1019.109 944.36 C 1017.659 944.36 1016.477 945.541 1016.477 946.991 L 1016.477 962.781 Z  M 1024.701 950.939 L 1029.635 957.518 L 1034.57 950.939 L 1030.951 950.939 L 1030.951 940.412 L 1028.32 940.412 L 1028.32 950.939 L 1024.701 950.939 Z " fill="rgb(0,0,0)"/></g></g></svg>
