<?xml version="1.0" standalone="no"?><!-- Generator: Gravit.io --><svg xmlns="http://www.w3.org/2000/svg" xmlns:xlink="http://www.w3.org/1999/xlink" style="isolation:isolate" viewBox="0 0 1920 1280" width="1920" height="1280"><defs><clipPath id="_clipPath_SKD5S3rkIriz3vyXK4OsZ1uniq6DOSnp"><rect width="1920" height="1280"/></clipPath></defs><g clip-path="url(#_clipPath_SKD5S3rkIriz3vyXK4OsZ1uniq6DOSnp)"><g id="faculty model"><g id="glass halls"><rect x="1410.021" y="807.489" width="305.202" height="285.847" transform="matrix(1,0,0,1,0,0)" fill="rgb(209,209,209)"/><path d=" M 1403.362 1099.995 L 1410.021 1093.336 L 1715.222 1093.336 L 1710.053 1099.995 L 1403.362 1099.995 Z " fill="rgb(162,162,162)"/><path d=" M 1403.356 1100.001 L 1410.021 1093.336 L 1410.021 807.489 L 1403.356 811.599 L 1403.356 1100.001 Z " fill="rgb(116,116,116)"/></g><g id="tower A"><rect x="1083.976" y="855.874" width="326.024" height="189.076" transform="matrix(1,0,0,1,0,0)" fill="rgb(209,209,209)"/><path d=" M 1077.313 1051.613 L 1083.976 1044.95 L 1410 1044.951 L 1403.434 1051.613 L 1077.313 1051.613 Z " fill="rgb(162,162,162)"/><path d=" M 1077.311 1051.615 L 1083.976 1044.95 L 1083.976 855.874 L 1077.311 859.985 L 1077.311 1051.615 Z " fill="rgb(116,116,116)"/></g><g id="computer_center"  class="room_block"><rect x="223.456" y="856" width="751.838" height="383.237" transform="matrix(1,0,0,1,0,0)" fill="rgb(209,209,209)"/><path d=" M 214.778 1247.916 L 223.456 1239.237 L 975.295 1239.237 L 968.105 1247.916 L 214.778 1247.916 Z " fill="rgb(162,162,162)"/><path d=" M 214.783 1247.911 L 223.456 1239.237 L 223.456 856.619 L 214.783 862.738 L 214.783 1247.911 Z " fill="rgb(116,116,116)"/></g><g id="tower B"><rect x="399.133" y="408.493" width="990.044" height="189.076" transform="matrix(1,0,0,1,0,0)" fill="rgb(209,209,209)"/><path d=" M 390.46 606.292 L 399.139 597.613 L 1210.777 597.619 L 1203.587 606.298 L 390.46 606.292 Z " fill="rgb(162,162,162)"/><path d=" M 1325.166 606.292 L 1325.166 597.569 L 1389.178 597.569 L 1384.008 606.292 L 1325.166 606.292 Z " fill="rgb(162,162,162)"/><path d=" M 390.46 606.292 L 399.133 597.619 L 399.133 408.493 L 390.46 414.613 L 390.46 606.292 Z " fill="rgb(116,116,116)"/></g><g id="connector"><rect x="1210.523" y="597.569" width="114.637" height="258.305" transform="matrix(1,0,0,1,0,0)" fill="rgb(209,209,209)"/><path d=" M 1203.858 855.874 L 1210.523 855.874 L 1210.523 597.766 L 1203.465 606.313 L 1203.858 855.874 Z " fill="rgb(116,116,116)"/></g><g id="halls"><path d=" M 1012.514 21.408 L 1389.178 21.408 L 1389.178 141 L 1389.178 408.493 L 1012.514 408.493 L 1012.514 21.408 Z " fill="rgb(209,209,209)"/><path d=" M 1005.849 408.493 L 1012.514 408.493 L 1012.514 21.408 L 1005.849 25.519 L 1005.849 408.493 Z " fill="rgb(116,116,116)"/></g></g><g class="rooms tower B"><g id="elevators"><g opacity="0.25"><rect x="1327.383" y="536.424" width="52.133" height="50.652" transform="matrix(1,0,0,1,0,0)" fill="none" vector-effect="non-scaling-stroke" stroke-width="2" stroke-dasharray="5,5" stroke="rgb(0,0,0)" stroke-linejoin="round" stroke-linecap="round" stroke-miterlimit="3"/></g><g opacity="0.25"><path d=" M 1347.397 549.25 L 1344.371 553.096 L 1350.423 553.096 L 1347.397 549.25 Z  M 1356.475 549.25 L 1359.501 553.096 L 1362.527 549.25 L 1356.475 549.25 Z  M 1342.354 555.019 C 1341.242 555.019 1340.336 555.883 1340.336 556.942 L 1340.336 572.327 C 1340.336 573.386 1341.242 574.25 1342.354 574.25 L 1364.545 574.25 C 1365.656 574.25 1366.562 573.386 1366.562 572.327 L 1366.562 556.942 C 1366.562 555.883 1365.656 555.019 1364.545 555.019 L 1342.354 555.019 Z  M 1345.38 556.942 C 1346.491 556.942 1347.397 557.806 1347.397 558.865 C 1347.397 559.925 1346.491 560.788 1345.38 560.788 C 1347.094 560.788 1348.406 562.038 1348.406 563.673 L 1348.406 566.558 L 1347.397 567.519 L 1346.893 572.327 L 1343.867 572.327 L 1343.362 567.519 L 1342.354 566.558 L 1342.354 563.673 C 1342.354 562.038 1343.665 560.788 1345.38 560.788 C 1344.268 560.788 1343.362 559.925 1343.362 558.865 C 1343.362 557.806 1344.268 556.942 1345.38 556.942 Z  M 1353.449 556.942 C 1354.561 556.942 1355.466 557.806 1355.466 558.865 C 1355.466 559.925 1354.561 560.788 1353.449 560.788 C 1355.164 560.788 1356.475 562.038 1356.475 563.673 L 1356.475 566.558 L 1355.466 567.519 L 1354.962 572.327 L 1351.936 572.327 L 1351.432 567.519 L 1350.423 566.558 L 1350.423 563.673 C 1350.423 562.038 1351.734 560.788 1353.449 560.788 C 1352.338 560.788 1351.432 559.925 1351.432 558.865 C 1351.432 557.806 1352.338 556.942 1353.449 556.942 Z  M 1361.518 556.942 C 1362.63 556.942 1363.536 557.806 1363.536 558.865 C 1363.536 559.925 1362.63 560.788 1361.518 560.788 C 1363.233 560.788 1364.545 562.038 1364.545 563.673 L 1364.545 566.558 L 1363.536 567.519 L 1363.032 572.327 L 1360.005 572.327 L 1359.501 567.519 L 1358.492 566.558 L 1358.492 563.673 C 1358.492 562.038 1359.804 560.788 1361.518 560.788 C 1360.407 560.788 1359.501 559.925 1359.501 558.865 C 1359.501 557.806 1360.407 556.942 1361.518 556.942 Z " fill="rgb(0,0,0)"/></g></g><g id="women_wc_1" class="room_block"><rect x="1023.917" y="523.695" width="46" height="59.552" transform="matrix(1,0,0,1,0,0)" fill="rgb(232,232,232)"/><path d=" M 1019.383 587.076 L 1023.917 583.246 L 1023.917 523.695 L 1019.383 526.814 L 1019.383 587.076 Z " fill="rgb(116,116,116)"/><path d=" M 1019.383 587.076 L 1023.917 583.246 L 1069.917 583.246 L 1065.07 587.076 L 1019.383 587.076 Z " fill="rgb(162,162,162)"/><g id="woman"><path d=" M 1048.792 565.971 L 1048.792 558.471 L 1052.542 558.471 L 1049.367 548.933 C 1049.024 547.912 1048.068 547.224 1046.992 547.221 L 1046.842 547.221 C 1045.763 547.22 1044.806 547.91 1044.467 548.933 L 1041.292 558.471 L 1045.042 558.471 L 1045.042 565.971 L 1048.792 565.971 Z " fill="rgb(0,0,0)"/><path d=" M 1046.917 545.971 C 1048.304 545.971 1049.417 544.858 1049.417 543.471 C 1049.417 542.083 1048.304 540.971 1046.917 540.971 C 1045.529 540.971 1044.417 542.083 1044.417 543.471 C 1044.417 544.858 1045.529 545.971 1046.917 545.971 Z " fill="rgb(0,0,0)"/></g></g><g id="men_wc_1" class="room_block"><rect x="1079.917" y="523.695" width="46" height="59.552" transform="matrix(1,0,0,1,0,0)" fill="rgb(232,232,232)"/><path d=" M 1075.383 587.076 L 1079.917 583.246 L 1079.917 523.695 L 1075.383 526.814 L 1075.383 587.076 Z " fill="rgb(116,116,116)"/><path d=" M 1075.383 587.076 L 1079.916 583.246 L 1125.916 583.246 L 1121.07 587.076 L 1075.383 587.076 Z " fill="rgb(162,162,162)"/><g id="man"><path d=" M 1100.417 565.971 L 1100.417 556.596 L 1098.542 556.596 L 1098.542 549.721 C 1098.542 548.346 1099.667 547.221 1101.042 547.221 L 1104.792 547.221 C 1106.167 547.221 1107.292 548.346 1107.292 549.721 L 1107.292 556.596 L 1105.417 556.596 L 1105.417 565.971 L 1100.417 565.971 Z " fill="rgb(0,0,0)"/><path d=" M 1102.917 545.971 C 1104.304 545.971 1105.417 544.858 1105.417 543.471 C 1105.417 542.083 1104.304 540.971 1102.917 540.971 C 1101.529 540.971 1100.417 542.083 1100.417 543.471 C 1100.417 544.858 1101.529 545.971 1102.917 545.971 Z " fill="rgb(0,0,0)"/></g></g><g id="stairs"><g opacity="0.25"><rect x="1131.383" y="524.507" width="78.133" height="58.767" transform="matrix(1,0,0,1,0,0)" fill="none" vector-effect="non-scaling-stroke" stroke-width="2" stroke-dasharray="5,5" stroke="rgb(0,0,0)" stroke-linejoin="round" stroke-linecap="round" stroke-miterlimit="3"/></g><g style="mix-blend-mode:normal;" opacity="0.25"><g transform="matrix(1.489,0,0,1.489,1150.619,545.545)"><text transform="matrix(1,0,0,1,0,9.32)" style="font-family:&quot;Ubuntu&quot;;font-weight:500;font-size:10px;font-style:normal;fill:#000000;stroke:none;">stairs</text></g></g></g><g id="stairs"><g opacity="0.25"><rect x="611.383" y="524.507" width="78.133" height="58.767" transform="matrix(1,0,0,1,0,0)" fill="none" vector-effect="non-scaling-stroke" stroke-width="2" stroke-dasharray="5,5" stroke="rgb(0,0,0)" stroke-linejoin="round" stroke-linecap="round" stroke-miterlimit="3"/></g><g style="mix-blend-mode:normal;" opacity="0.25"><g transform="matrix(1.489,0,0,1.489,630.619,545.545)"><text transform="matrix(1,0,0,1,0,9.32)" style="font-family:&quot;Ubuntu&quot;;font-weight:500;font-size:10px;font-style:normal;fill:#000000;stroke:none;">stairs</text></g></g></g><g id="room_109" class="room_block"><rect x="699.917" y="523.695" width="88.466" height="59.552" transform="matrix(1,0,0,1,0,0)" fill="rgb(232,232,232)"/><path d=" M 695.383 587.076 L 699.917 583.246 L 699.917 523.695 L 695.383 526.814 L 695.383 587.076 Z " fill="rgb(116,116,116)"/><path d=" M 695.383 587.076 L 699.917 583.246 L 788.383 583.246 L 783.536 587.076 L 695.383 587.076 Z " fill="rgb(162,162,162)"/><g transform="matrix(1.489,0,0,1.489,727.029,543.457)"><text transform="matrix(1,0,0,1,0,11.184)" style="font-family:&quot;Ubuntu&quot;;font-weight:500;font-size:12px;font-style:normal;fill:#000000;stroke:none;">109</text></g></g><g id="room_110" class="room_block"><rect x="797.917" y="523.695" width="88.466" height="59.552" transform="matrix(1,0,0,1,0,0)" fill="rgb(232,232,232)"/><path d=" M 793.383 587.076 L 797.917 583.246 L 797.917 523.695 L 793.383 526.814 L 793.383 587.076 Z " fill="rgb(116,116,116)"/><path d=" M 793.383 587.076 L 797.917 583.246 L 886.383 583.246 L 881.536 587.076 L 793.383 587.076 Z " fill="rgb(162,162,162)"/><g transform="matrix(1.489,0,0,1.489,825.029,543.457)"><text transform="matrix(1,0,0,1,0,11.184)" style="font-family:&quot;Ubuntu&quot;;font-weight:500;font-size:12px;font-style:normal;fill:#000000;stroke:none;">110</text></g></g><g id="room_111" class="room_block"><rect x="895.917" y="523.695" width="118.466" height="59.552" transform="matrix(1,0,0,1,0,0)" fill="rgb(232,232,232)"/><path d=" M 891.383 587.076 L 895.917 583.246 L 895.917 523.695 L 891.383 526.814 L 891.383 587.076 Z " fill="rgb(116,116,116)"/><path d=" M 891.383 587.076 L 895.917 583.246 L 1014.383 583.246 L 1009.536 587.076 L 891.383 587.076 Z " fill="rgb(162,162,162)"/><g transform="matrix(1.489,0,0,1.489,938.029,543.457)"><text transform="matrix(1,0,0,1,0,11.184)" style="font-family:&quot;Ubuntu&quot;;font-weight:500;font-size:12px;font-style:normal;fill:#000000;stroke:none;">111</text></g></g><g id="room_108" class="room_block"><rect x="512.917" y="523.695" width="93.466" height="59.552" transform="matrix(1,0,0,1,0,0)" fill="rgb(232,232,232)"/><path d=" M 508.383 587.076 L 512.917 583.246 L 512.917 523.695 L 508.383 526.814 L 508.383 587.076 Z " fill="rgb(116,116,116)"/><path d=" M 508.383 587.076 L 512.917 583.246 L 606.383 583.246 L 601.536 587.076 L 508.383 587.076 Z " fill="rgb(162,162,162)"/><g transform="matrix(1.489,0,0,1.489,542.529,543.457)"><text transform="matrix(1,0,0,1,0,11.184)" style="font-family:&quot;Ubuntu&quot;;font-weight:500;font-size:12px;font-style:normal;fill:#000000;stroke:none;">108</text></g></g><g id="room_107" class="room_block"><rect x="414.439" y="523.695" width="88.466" height="59.552" transform="matrix(1,0,0,1,0,0)" fill="rgb(232,232,232)"/><path d=" M 409.905 587.076 L 414.439 583.246 L 414.439 523.695 L 409.905 526.814 L 409.905 587.076 Z " fill="rgb(116,116,116)"/><path d=" M 409.905 587.076 L 414.439 583.246 L 502.905 583.246 L 498.059 587.076 L 409.905 587.076 Z " fill="rgb(162,162,162)"/><g transform="matrix(1.489,0,0,1.489,441.551,543.457)"><text transform="matrix(1,0,0,1,0,11.184)" style="font-family:&quot;Ubuntu&quot;;font-weight:500;font-size:12px;font-style:normal;fill:#000000;stroke:none;">107</text></g></g><g id="room_106" class="room_block"><rect x="414.439" y="418" width="88.466" height="59.552" transform="matrix(1,0,0,1,0,0)" fill="rgb(232,232,232)"/><path d=" M 409.905 481.381 L 414.439 477.552 L 414.439 418 L 409.905 421.119 L 409.905 481.381 Z " fill="rgb(116,116,116)"/><path d=" M 409.905 481.381 L 414.439 477.552 L 502.905 477.552 L 498.059 481.381 L 409.905 481.381 Z " fill="rgb(162,162,162)"/><g transform="matrix(1.489,0,0,1.489,441.551,437.762)"><text transform="matrix(1,0,0,1,0,11.184)" style="font-family:&quot;Ubuntu&quot;;font-weight:500;font-size:12px;font-style:normal;fill:#000000;stroke:none;">106</text></g></g><g id="room_105" class="room_block"><rect x="512.917" y="418" width="88.466" height="59.552" transform="matrix(1,0,0,1,0,0)" fill="rgb(232,232,232)"/><path d=" M 508.383 481.381 L 512.917 477.552 L 512.917 418 L 508.383 421.119 L 508.383 481.381 Z " fill="rgb(116,116,116)"/><path d=" M 508.383 481.381 L 512.917 477.552 L 601.383 477.552 L 596.536 481.381 L 508.383 481.381 Z " fill="rgb(162,162,162)"/><g transform="matrix(1.489,0,0,1.489,540.029,437.762)"><text transform="matrix(1,0,0,1,0,11.184)" style="font-family:&quot;Ubuntu&quot;;font-weight:500;font-size:12px;font-style:normal;fill:#000000;stroke:none;">105</text></g></g><g id="room_104" class="room_block"><rect x="611.394" y="418" width="88.466" height="59.552" transform="matrix(1,0,0,1,0,0)" fill="rgb(232,232,232)"/><path d=" M 606.86 481.381 L 611.394 477.552 L 611.394 418 L 606.86 421.119 L 606.86 481.381 Z " fill="rgb(116,116,116)"/><path d=" M 606.86 481.381 L 611.394 477.552 L 699.86 477.552 L 695.014 481.381 L 606.86 481.381 Z " fill="rgb(162,162,162)"/><g transform="matrix(1.489,0,0,1.489,638.506,437.762)"><text transform="matrix(1,0,0,1,0,11.184)" style="font-family:&quot;Ubuntu&quot;;font-weight:500;font-size:12px;font-style:normal;fill:#000000;stroke:none;">104</text></g></g><g id="room_103" class="room_block"><rect x="709.871" y="418" width="88.466" height="59.552" transform="matrix(1,0,0,1,0,0)" fill="rgb(232,232,232)"/><path d=" M 705.337 481.381 L 709.871 477.552 L 709.871 418 L 705.337 421.119 L 705.337 481.381 Z " fill="rgb(116,116,116)"/><path d=" M 705.337 481.381 L 709.871 477.552 L 798.337 477.552 L 793.491 481.381 L 705.337 481.381 Z " fill="rgb(162,162,162)"/><g transform="matrix(1.489,0,0,1.489,736.983,437.762)"><text transform="matrix(1,0,0,1,0,11.184)" style="font-family:&quot;Ubuntu&quot;;font-weight:500;font-size:12px;font-style:normal;fill:#000000;stroke:none;">103</text></g></g><g id="room_102" class="room_block"><rect x="808.349" y="418" width="88.466" height="59.552" transform="matrix(1,0,0,1,0,0)" fill="rgb(232,232,232)"/><path d=" M 803.815 481.381 L 808.349 477.552 L 808.349 418 L 803.815 421.119 L 803.815 481.381 Z " fill="rgb(116,116,116)"/><path d=" M 803.815 481.381 L 808.349 477.552 L 896.815 477.552 L 891.968 481.381 L 803.815 481.381 Z " fill="rgb(162,162,162)"/><g transform="matrix(1.489,0,0,1.489,835.461,437.762)"><text transform="matrix(1,0,0,1,0,11.184)" style="font-family:&quot;Ubuntu&quot;;font-weight:500;font-size:12px;font-style:normal;fill:#000000;stroke:none;">102</text></g></g><g id="room_101" class="room_block"><rect x="906.917" y="418" width="88.466" height="59.552" transform="matrix(1,0,0,1,0,0)" fill="rgb(232,232,232)"/><path d=" M 902.383 481.381 L 906.917 477.552 L 906.917 418 L 902.383 421.119 L 902.383 481.381 Z " fill="rgb(116,116,116)"/><path d=" M 902.383 481.381 L 906.917 477.552 L 995.383 477.552 L 990.536 481.381 L 902.383 481.381 Z " fill="rgb(162,162,162)"/><g transform="matrix(1.489,0,0,1.489,934.029,437.762)"><text transform="matrix(1,0,0,1,0,11.184)" style="font-family:&quot;Ubuntu&quot;;font-weight:500;font-size:12px;font-style:normal;fill:#000000;stroke:none;">101</text></g></g><g id="buffet_2"  class="room_block"><rect x="1004.917" y="418" width="106.557" height="59.552" transform="matrix(1,0,0,1,0,0)" fill="rgb(232,232,232)"/><path d=" M 1000.383 481.381 L 1004.917 477.552 L 1004.917 418 L 1000.383 421.119 L 1000.383 481.381 Z " fill="rgb(116,116,116)"/><path d=" M 1000.383 481.381 L 1004.917 477.552 L 1111.473 477.552 L 1106.627 481.381 L 1000.383 481.381 Z " fill="rgb(162,162,162)"/><g transform="matrix(1.489,0,0,1.489,1029.908,437.762)"><text transform="matrix(1,0,0,1,0,11.184)" style="font-family:&quot;Ubuntu&quot;;font-weight:500;font-size:12px;font-style:normal;fill:#000000;stroke:none;">buffet</text></g></g></g><g class="rooms halls"><g id="hall_A" class="room_block"><rect x="1095.534" y="31.408" width="283.982" height="94.282" transform="matrix(1,0,0,1,0,0)" fill="rgb(232,232,232)"/><path d=" M 1091 129.52 L 1095.534 125.691 L 1095.534 31.408 L 1091 34.528 L 1091 129.52 Z " fill="rgb(116,116,116)"/><path d=" M 1091 129.52 L 1095.534 125.691 L 1379.515 125.691 L 1374.669 129.521 L 1091 129.52 Z " fill="rgb(162,162,162)"/><g transform="matrix(1.489,0,0,1.489,1230.135,68.536)"><text transform="matrix(1,0,0,1,0,11.184)" style="font-family:&quot;Ubuntu&quot;;font-weight:500;font-size:12px;font-style:normal;fill:#000000;stroke:none;">A</text></g></g><g id="hall_B" class="room_block"><rect x="1095.534" y="140" width="179.982" height="126.282" transform="matrix(1,0,0,1,0,0)" fill="rgb(232,232,232)"/><path d=" M 1091 270.112 L 1095.534 266.282 L 1095.534 140 L 1091 143.119 L 1091 270.112 Z " fill="rgb(116,116,116)"/><path d=" M 1091 270.112 L 1095.534 266.282 L 1275.516 266.282 L 1270.669 270.112 L 1091 270.112 Z " fill="rgb(162,162,162)"/><g transform="matrix(1.489,0,0,1.489,1178.135,193.128)"><text transform="matrix(1,0,0,1,0,11.184)" style="font-family:&quot;Ubuntu&quot;;font-weight:500;font-size:12px;font-style:normal;fill:#000000;stroke:none;">B</text></g></g><g id="hall_C" class="room_block"><rect x="1094.374" y="276" width="179.982" height="128.282" transform="matrix(1,0,0,1,0,0)" fill="rgb(232,232,232)"/><path d=" M 1089.84 408.112 L 1094.374 404.282 L 1094.374 276 L 1089.84 279.119 L 1089.84 408.112 Z " fill="rgb(116,116,116)"/><path d=" M 1089.84 408.112 L 1094.373 404.282 L 1274.355 404.282 L 1269.509 408.112 L 1089.84 408.112 Z " fill="rgb(162,162,162)"/><g transform="matrix(1.489,0,0,1.489,1176.975,330.128)"><text transform="matrix(1,0,0,1,0,11.184)" style="font-family:&quot;Ubuntu&quot;;font-weight:500;font-size:12px;font-style:normal;fill:#000000;stroke:none;">C</text></g></g></g><g class="rooms connector"><g id="room_113" class="room_block"><rect x="1271.192" y="706" width="44.306" height="135.6" transform="matrix(1,0,0,1,0,0)" fill="rgb(232,232,232)"/><path d=" M 1266.658 845.43 L 1271.192 841.6 L 1271.192 706 L 1266.658 709.119 L 1266.658 845.43 Z " fill="rgb(116,116,116)"/><path d=" M 1266.658 845.43 L 1271.192 841.6 L 1315.498 841.6 L 1310.651 845.43 L 1266.658 845.43 Z " fill="rgb(162,162,162)"/><g transform="matrix(0,1.489,-1.489,0,1301.689,758.912)"><text transform="matrix(1,0,0,1,0,9.32)" style="font-family:&quot;Ubuntu&quot;;font-weight:500;font-size:10px;font-style:normal;fill:#000000;stroke:none;">113</text></g></g><g id="room_112" class="room_block"><rect x="1271.192" y="608" width="44.306" height="88.885" transform="matrix(1,0,0,1,0,0)" fill="rgb(232,232,232)"/><path d=" M 1266.658 700.715 L 1271.192 696.885 L 1271.192 608 L 1266.658 611.119 L 1266.658 700.715 Z " fill="rgb(116,116,116)"/><path d=" M 1266.658 700.715 L 1271.192 696.885 L 1315.498 696.885 L 1310.651 700.715 L 1266.658 700.715 Z " fill="rgb(162,162,162)"/><g transform="matrix(0,1.489,-1.489,0,1301.689,637.555)"><text transform="matrix(1,0,0,1,0,9.32)" style="font-family:&quot;Ubuntu&quot;;font-weight:500;font-size:10px;font-style:normal;fill:#000000;stroke:none;">112</text></g></g></g><g class="rooms tower A"><g id="women_wc_0" class="room_block"><rect x="1098.534" y="866" width="51.466" height="59.552" transform="matrix(1,0,0,1,0,0)" fill="rgb(232,232,232)"/><path d=" M 1094 929.381 L 1098.534 925.552 L 1098.534 866 L 1094 869.119 L 1094 929.381 Z " fill="rgb(116,116,116)"/><path d=" M 1094 929.381 L 1098.534 925.552 L 1150 925.552 L 1145.154 929.381 L 1094 929.381 Z " fill="rgb(162,162,162)"/><g id="woman"><path d=" M 1126.142 908.276 L 1126.142 900.776 L 1129.892 900.776 L 1126.717 891.238 C 1126.374 890.217 1125.419 889.529 1124.342 889.526 L 1124.192 889.526 C 1123.114 889.525 1122.157 890.215 1121.817 891.238 L 1118.642 900.776 L 1122.392 900.776 L 1122.392 908.276 L 1126.142 908.276 Z " fill="rgb(0,0,0)"/><path d=" M 1124.267 888.276 C 1125.654 888.276 1126.767 887.163 1126.767 885.776 C 1126.767 884.388 1125.654 883.276 1124.267 883.276 C 1122.879 883.276 1121.767 884.388 1121.767 885.776 C 1121.767 887.163 1122.879 888.276 1124.267 888.276 Z " fill="rgb(0,0,0)"/></g></g><g id="men_wc_0" class="room_block"><rect x="1159.534" y="866" width="51.466" height="59.552" transform="matrix(1,0,0,1,0,0)" fill="rgb(232,232,232)"/><path d=" M 1155 929.381 L 1159.534 925.552 L 1159.534 866 L 1155 869.119 L 1155 929.381 Z " fill="rgb(116,116,116)"/><path d=" M 1155 929.381 L 1159.534 925.552 L 1211 925.552 L 1206.154 929.381 L 1155 929.381 Z " fill="rgb(162,162,162)"/><g id="man"><path d=" M 1182.767 908.276 L 1182.767 898.901 L 1180.892 898.901 L 1180.892 892.026 C 1180.892 890.651 1182.017 889.526 1183.392 889.526 L 1187.142 889.526 C 1188.517 889.526 1189.642 890.651 1189.642 892.026 L 1189.642 898.901 L 1187.767 898.901 L 1187.767 908.276 L 1182.767 908.276 Z " fill="rgb(0,0,0)"/><path d=" M 1185.267 888.276 C 1186.654 888.276 1187.767 887.163 1187.767 885.776 C 1187.767 884.388 1186.654 883.276 1185.267 883.276 C 1183.879 883.276 1182.767 884.388 1182.767 885.776 C 1182.767 887.163 1183.879 888.276 1185.267 888.276 Z " fill="rgb(0,0,0)"/></g></g><g id="elevators"><g opacity="0.25"><rect x="1268" y="866" width="51.133" height="50.652" transform="matrix(1,0,0,1,0,0)" fill="none" vector-effect="non-scaling-stroke" stroke-width="2" stroke-dasharray="5,5" stroke="rgb(0,0,0)" stroke-linejoin="round" stroke-linecap="round" stroke-miterlimit="3"/></g><g opacity="0.25"><path d=" M 1287.514 878.826 L 1284.488 882.672 L 1290.54 882.672 L 1287.514 878.826 Z  M 1296.592 878.826 L 1299.618 882.672 L 1302.644 878.826 L 1296.592 878.826 Z  M 1282.471 884.595 C 1281.359 884.595 1280.454 885.459 1280.454 886.519 L 1280.454 901.903 C 1280.454 902.963 1281.359 903.826 1282.471 903.826 L 1304.662 903.826 C 1305.773 903.826 1306.679 902.963 1306.679 901.903 L 1306.679 886.519 C 1306.679 885.459 1305.773 884.595 1304.662 884.595 L 1282.471 884.595 Z  M 1285.497 886.519 C 1286.609 886.519 1287.514 887.382 1287.514 888.442 C 1287.514 889.501 1286.609 890.365 1285.497 890.365 C 1287.212 890.365 1288.523 891.615 1288.523 893.249 L 1288.523 896.134 L 1287.514 897.095 L 1287.01 901.903 L 1283.984 901.903 L 1283.48 897.095 L 1282.471 896.134 L 1282.471 893.249 C 1282.471 891.615 1283.782 890.365 1285.497 890.365 C 1284.385 890.365 1283.48 889.501 1283.48 888.442 C 1283.48 887.382 1284.385 886.519 1285.497 886.519 Z  M 1293.566 886.519 C 1294.678 886.519 1295.584 887.382 1295.584 888.442 C 1295.584 889.501 1294.678 890.365 1293.566 890.365 C 1295.281 890.365 1296.592 891.615 1296.592 893.249 L 1296.592 896.134 L 1295.584 897.095 L 1295.079 901.903 L 1292.053 901.903 L 1291.549 897.095 L 1290.54 896.134 L 1290.54 893.249 C 1290.54 891.615 1291.852 890.365 1293.566 890.365 C 1292.455 890.365 1291.549 889.501 1291.549 888.442 C 1291.549 887.382 1292.455 886.519 1293.566 886.519 Z  M 1301.636 886.519 C 1302.747 886.519 1303.653 887.382 1303.653 888.442 C 1303.653 889.501 1302.747 890.365 1301.636 890.365 C 1303.35 890.365 1304.662 891.615 1304.662 893.249 L 1304.662 896.134 L 1303.653 897.095 L 1303.149 901.903 L 1300.123 901.903 L 1299.618 897.095 L 1298.61 896.134 L 1298.61 893.249 C 1298.61 891.615 1299.921 890.365 1301.636 890.365 C 1300.524 890.365 1299.618 889.501 1299.618 888.442 C 1299.618 887.382 1300.524 886.519 1301.636 886.519 Z " fill="rgb(0,0,0)"/></g></g><g id="stairs"><g opacity="0.25"><rect x="1323.867" y="866" width="51.133" height="50.652" transform="matrix(1,0,0,1,0,0)" fill="none" vector-effect="non-scaling-stroke" stroke-width="2" stroke-dasharray="5,5" stroke="rgb(0,0,0)" stroke-linejoin="round" stroke-linecap="round" stroke-miterlimit="3"/></g><g style="mix-blend-mode:normal;" opacity="0.25"><g transform="matrix(1.489,0,0,1.489,1329.604,882.982)"><text transform="matrix(1,0,0,1,0,9.32)" style="font-family:&quot;Ubuntu&quot;;font-weight:500;font-size:10px;font-style:normal;fill:#000000;stroke:none;">stairs</text></g></g></g><g id="room_114" class="room_block"><rect x="1098.937" y="985" width="44.306" height="46.552" transform="matrix(1,0,0,1,0,0)" fill="rgb(232,232,232)"/><path d=" M 1094.314 1035.381 L 1098.848 1031.552 L 1098.848 985 L 1094.314 988.119 L 1094.314 1035.381 Z " fill="rgb(116,116,116)"/><path d=" M 1094.314 1035.381 L 1098.848 1031.552 L 1143.154 1031.552 L 1138.307 1035.381 L 1094.314 1035.381 Z " fill="rgb(162,162,162)"/><g transform="matrix(1.489,0,0,1.489,1103.969,998.262)"><text transform="matrix(1,0,0,1,0,11.184)" style="font-family:&quot;Ubuntu&quot;;font-weight:500;font-size:12px;font-style:normal;fill:#000000;stroke:none;">114</text></g></g><g id="room_115" class="room_block"><rect x="1152.955" y="984.952" width="44.306" height="46.6" transform="matrix(1,0,0,1,0,0)" fill="rgb(232,232,232)"/><path d=" M 1148.332 1035.381 L 1152.866 1031.552 L 1152.866 984.952 L 1148.332 988.071 L 1148.332 1035.381 Z " fill="rgb(116,116,116)"/><path d=" M 1148.332 1035.381 L 1152.866 1031.552 L 1197.171 1031.552 L 1192.325 1035.381 L 1148.332 1035.381 Z " fill="rgb(162,162,162)"/><g transform="matrix(1.489,0,0,1.489,1157.987,998.238)"><text transform="matrix(1,0,0,1,0,11.184)" style="font-family:&quot;Ubuntu&quot;;font-weight:500;font-size:12px;font-style:normal;fill:#000000;stroke:none;">115</text></g></g><g id="room_116" class="room_block"><rect x="1207.623" y="984.952" width="44.306" height="46.6" transform="matrix(1,0,0,1,0,0)" fill="rgb(232,232,232)"/><path d=" M 1203 1035.381 L 1207.534 1031.552 L 1207.534 984.952 L 1203 988.071 L 1203 1035.381 Z " fill="rgb(116,116,116)"/><path d=" M 1203 1035.381 L 1207.534 1031.552 L 1251.84 1031.552 L 1246.993 1035.381 L 1203 1035.381 Z " fill="rgb(162,162,162)"/><g transform="matrix(1.489,0,0,1.489,1212.655,998.238)"><text transform="matrix(1,0,0,1,0,11.184)" style="font-family:&quot;Ubuntu&quot;;font-weight:500;font-size:12px;font-style:normal;fill:#000000;stroke:none;">116</text></g></g><g id="room_117" class="room_block"><rect x="1262.228" y="984.952" width="44.306" height="46.6" transform="matrix(1,0,0,1,0,0)" fill="rgb(232,232,232)"/><path d=" M 1257.605 1035.381 L 1262.139 1031.552 L 1262.139 984.952 L 1257.605 988.071 L 1257.605 1035.381 Z " fill="rgb(116,116,116)"/><path d=" M 1257.605 1035.381 L 1262.139 1031.552 L 1306.444 1031.552 L 1301.598 1035.381 L 1257.605 1035.381 Z " fill="rgb(162,162,162)"/><g transform="matrix(1.489,0,0,1.489,1267.26,998.238)"><text transform="matrix(1,0,0,1,0,11.184)" style="font-family:&quot;Ubuntu&quot;;font-weight:500;font-size:12px;font-style:normal;fill:#000000;stroke:none;">117</text></g></g><g id="room_118" class="room_block"><rect x="1316.743" y="984.952" width="58.306" height="46.6" transform="matrix(1,0,0,1,0,0)" fill="rgb(232,232,232)"/><path d=" M 1312.209 1035.381 L 1316.743 1031.552 L 1316.743 984.952 L 1312.209 988.071 L 1312.209 1035.381 Z " fill="rgb(116,116,116)"/><path d=" M 1312.209 1035.381 L 1316.743 1031.552 L 1375.049 1031.552 L 1370.203 1035.381 L 1312.209 1035.381 Z " fill="rgb(162,162,162)"/><g transform="matrix(1.489,0,0,1.489,1328.775,998.238)"><text transform="matrix(1,0,0,1,0,11.184)" style="font-family:&quot;Ubuntu&quot;;font-weight:500;font-size:12px;font-style:normal;fill:#000000;stroke:none;">118</text></g></g></g><g class="rooms glass halls"><g id="hall_E" class="room_block"><path d=" M 1679.044 855 L 1613.151 855 L 1613.151 873.991 L 1594.534 873.991 L 1594.534 1044.912 L 1679.044 1044.912 L 1679.044 855 Z " fill="rgb(232,232,232)"/><g transform="matrix(1.489,0,0,1.489,1630.089,939.942)"><text transform="matrix(1,0,0,1,0,11.184)" style="font-family:&quot;Ubuntu&quot;;font-weight:500;font-size:12px;font-style:normal;fill:#000000;stroke:none;">E</text></g><path d=" M 1590 1048.742 L 1594.534 1044.912 L 1594.534 873.991 L 1590 877.111 L 1590 1048.742 Z " fill="rgb(116,116,116)"/><path d=" M 1608.617 873.991 L 1613.151 873.991 L 1613.151 855 L 1608.617 858.119 L 1608.617 873.991 Z " fill="rgb(116,116,116)"/><path d=" M 1590 1048.742 L 1594.534 1044.912 L 1679.044 1044.912 L 1674.197 1048.742 L 1590 1048.742 Z " fill="rgb(162,162,162)"/></g><g id="hall_D" class="room_block"><path d=" M 1454.534 855 L 1520.897 855 L 1520.897 874.058 L 1539.647 874.058 L 1539.647 1045.576 L 1454.534 1045.576 L 1454.534 855 Z " fill="rgb(232,232,232)"/><g transform="matrix(1.489,0,0,1.489,1489.647,940.275)"><text transform="matrix(1,0,0,1,0,11.184)" style="font-family:&quot;Ubuntu&quot;;font-weight:500;font-size:12px;font-style:normal;fill:#000000;stroke:none;">D</text></g><path d=" M 1450 1049.406 L 1454.534 1045.576 L 1454.534 855 L 1450 858.119 L 1450 1049.406 Z " fill="rgb(116,116,116)"/><path d=" M 1450 1049.406 L 1454.534 1045.576 L 1539.647 1045.576 L 1534.801 1049.406 L 1450 1049.406 Z " fill="rgb(162,162,162)"/></g><g id="stairs"><g opacity="0.25"><rect x="1550.372" y="937" width="30" height="112" transform="matrix(1,0,0,1,0,0)" fill="none" vector-effect="non-scaling-stroke" stroke-width="2" stroke-dasharray="5,5" stroke="rgb(0,0,0)" stroke-linejoin="round" stroke-linecap="round" stroke-miterlimit="3"/></g><g style="mix-blend-mode:normal;" opacity="0.25"><g transform="matrix(0,1.489,-1.489,0,1573.716,972.893)"><text transform="matrix(1,0,0,1,0,9.32)" style="font-family:&quot;Ubuntu&quot;;font-weight:500;font-size:10px;font-style:normal;fill:#000000;stroke:none;">stairs</text></g></g></g></g><g class="rooms computer_center" class="room_block"><g id="room_119" class="room_block"><path d=" M 238.534 866 L 965 866 L 965 1224.789 L 238.534 1224.789 L 238.534 866 Z  M 450.001 1038 L 566.001 1038 L 566.001 1114.001 L 450.001 1114.001 L 450.001 1038 Z " fill-rule="evenodd" fill="rgb(232,232,232)"/><path d=" M 234 1228.619 L 238.534 1224.789 L 238.534 866 L 234 869.119 L 234 1228.619 Z " fill="rgb(116,116,116)"/><path d=" M 561.155 1114.003 L 566.001 1114.001 L 566.001 1038 L 561.155 1041.83 L 561.155 1114.003 Z " fill="rgb(116,116,116)"/><path d=" M 234 1228.619 L 238.534 1224.789 L 965 1224.789 L 960.154 1228.619 L 234 1228.619 Z " fill="rgb(162,162,162)"/><path d=" M 450 1041.83 L 450.001 1038 L 566.001 1038 L 561.155 1041.83 L 450 1041.83 Z " fill="rgb(162,162,162)"/><g transform="matrix(1.489,0,0,1.489,584.646,1035.381)"><text transform="matrix(1,0,0,1,0,11.184)" style="font-family:&quot;Ubuntu&quot;;font-weight:500;font-size:12px;font-style:normal;fill:#000000;stroke:none;">119</text></g></g><g id="stairs" style="opacity:0.25;"><rect x="455" y="1048.691" width="101" height="60" transform="matrix(1,0,0,1,0,0)" fill="none" vector-effect="non-scaling-stroke" stroke-width="2" stroke-dasharray="5,5" stroke="rgb(0,0,0)" stroke-linejoin="round" stroke-linecap="round" stroke-miterlimit="3"/><g transform="matrix(1.489,0,0,1.489,481.47,1068.677)"><text transform="matrix(1,0,0,1,0,11.184)" style="font-family:&quot;Ubuntu&quot;;font-weight:500;font-size:12px;font-style:normal;fill:#000000;stroke:none;">stairs</text></g></g></g></g></svg>
