<?xml version="1.0" standalone="no"?><!-- Generator: Gravit.io --><svg xmlns="http://www.w3.org/2000/svg" xmlns:xlink="http://www.w3.org/1999/xlink" style="isolation:isolate" viewBox="0 0 1920 1280" width="1920" height="1280"><defs><clipPath id="_clipPath_h8NffirV9eLL9Qe2cXRSGwPqzcEO7crM"><rect width="1920" height="1280"/></clipPath></defs><g clip-path="url(#_clipPath_h8NffirV9eLL9Qe2cXRSGwPqzcEO7crM)"><g id="faculty model"><g id="tower A"><rect x="1083.976" y="855.874" width="584.024" height="189.076" transform="matrix(1,0,0,1,0,0)" fill="rgb(209,209,209)"/><path d=" M 1077.313 1051.613 L 1083.976 1044.95 L 1668 1044.951 L 1661.434 1051.613 L 1077.313 1051.613 Z " fill="rgb(162,162,162)"/><path d=" M 1077.311 1051.615 L 1083.976 1044.95 L 1083.976 855.874 L 1077.311 859.985 L 1077.311 1051.615 Z " fill="rgb(116,116,116)"/></g><g id="tower B"><rect x="399.133" y="408.493" width="990.044" height="189.076" transform="matrix(1,0,0,1,0,0)" fill="rgb(209,209,209)"/><path d=" M 390.46 606.292 L 399.139 597.613 L 1210.777 597.619 L 1203.587 606.298 L 390.46 606.292 Z " fill="rgb(162,162,162)"/><path d=" M 1325.166 606.292 L 1325.166 597.569 L 1389.178 597.569 L 1384.008 606.292 L 1325.166 606.292 Z " fill="rgb(162,162,162)"/><path d=" M 390.46 606.292 L 399.133 597.619 L 399.133 408.493 L 390.46 414.613 L 390.46 606.292 Z " fill="rgb(116,116,116)"/></g><g id="connector"><rect x="1210.523" y="597.569" width="114.637" height="258.305" transform="matrix(1,0,0,1,0,0)" fill="rgb(209,209,209)"/><path d=" M 1203.858 855.874 L 1210.523 855.874 L 1210.523 597.766 L 1203.465 606.313 L 1203.858 855.874 Z " fill="rgb(116,116,116)"/></g></g><g class="rooms tower B"><g id="elevators"><g opacity="0.25"><rect x="1327.383" y="536.424" width="52.133" height="50.652" transform="matrix(1,0,0,1,0,0)" fill="none" vector-effect="non-scaling-stroke" stroke-width="2" stroke-dasharray="5,5" stroke="rgb(0,0,0)" stroke-linejoin="round" stroke-linecap="round" stroke-miterlimit="3"/></g><g opacity="0.25"><path d=" M 1347.397 549.25 L 1344.371 553.096 L 1350.423 553.096 L 1347.397 549.25 Z  M 1356.475 549.25 L 1359.501 553.096 L 1362.527 549.25 L 1356.475 549.25 Z  M 1342.354 555.019 C 1341.242 555.019 1340.336 555.883 1340.336 556.942 L 1340.336 572.327 C 1340.336 573.386 1341.242 574.25 1342.354 574.25 L 1364.545 574.25 C 1365.656 574.25 1366.562 573.386 1366.562 572.327 L 1366.562 556.942 C 1366.562 555.883 1365.656 555.019 1364.545 555.019 L 1342.354 555.019 Z  M 1345.38 556.942 C 1346.491 556.942 1347.397 557.806 1347.397 558.865 C 1347.397 559.925 1346.491 560.788 1345.38 560.788 C 1347.094 560.788 1348.406 562.038 1348.406 563.673 L 1348.406 566.558 L 1347.397 567.519 L 1346.893 572.327 L 1343.867 572.327 L 1343.362 567.519 L 1342.354 566.558 L 1342.354 563.673 C 1342.354 562.038 1343.665 560.788 1345.38 560.788 C 1344.268 560.788 1343.362 559.925 1343.362 558.865 C 1343.362 557.806 1344.268 556.942 1345.38 556.942 Z  M 1353.449 556.942 C 1354.561 556.942 1355.466 557.806 1355.466 558.865 C 1355.466 559.925 1354.561 560.788 1353.449 560.788 C 1355.164 560.788 1356.475 562.038 1356.475 563.673 L 1356.475 566.558 L 1355.466 567.519 L 1354.962 572.327 L 1351.936 572.327 L 1351.432 567.519 L 1350.423 566.558 L 1350.423 563.673 C 1350.423 562.038 1351.734 560.788 1353.449 560.788 C 1352.338 560.788 1351.432 559.925 1351.432 558.865 C 1351.432 557.806 1352.338 556.942 1353.449 556.942 Z  M 1361.518 556.942 C 1362.63 556.942 1363.536 557.806 1363.536 558.865 C 1363.536 559.925 1362.63 560.788 1361.518 560.788 C 1363.233 560.788 1364.545 562.038 1364.545 563.673 L 1364.545 566.558 L 1363.536 567.519 L 1363.032 572.327 L 1360.005 572.327 L 1359.501 567.519 L 1358.492 566.558 L 1358.492 563.673 C 1358.492 562.038 1359.804 560.788 1361.518 560.788 C 1360.407 560.788 1359.501 559.925 1359.501 558.865 C 1359.501 557.806 1360.407 556.942 1361.518 556.942 Z " fill="rgb(0,0,0)"/></g></g><g id="women wc"><rect x="1023.917" y="523.695" width="46" height="59.552" transform="matrix(1,0,0,1,0,0)" fill="rgb(232,232,232)"/><path d=" M 1019.383 587.076 L 1023.917 583.246 L 1023.917 523.695 L 1019.383 526.814 L 1019.383 587.076 Z " fill="rgb(116,116,116)"/><path d=" M 1019.383 587.076 L 1023.917 583.246 L 1069.917 583.246 L 1065.07 587.076 L 1019.383 587.076 Z " fill="rgb(162,162,162)"/><g id="woman"><path d=" M 1048.792 565.971 L 1048.792 558.471 L 1052.542 558.471 L 1049.367 548.933 C 1049.024 547.912 1048.068 547.224 1046.992 547.221 L 1046.842 547.221 C 1045.763 547.22 1044.806 547.91 1044.467 548.933 L 1041.292 558.471 L 1045.042 558.471 L 1045.042 565.971 L 1048.792 565.971 Z " fill="rgb(0,0,0)"/><path d=" M 1046.917 545.971 C 1048.304 545.971 1049.417 544.858 1049.417 543.471 C 1049.417 542.083 1048.304 540.971 1046.917 540.971 C 1045.529 540.971 1044.417 542.083 1044.417 543.471 C 1044.417 544.858 1045.529 545.971 1046.917 545.971 Z " fill="rgb(0,0,0)"/></g></g><g id="men wc"><rect x="1079.917" y="523.695" width="46" height="59.552" transform="matrix(1,0,0,1,0,0)" fill="rgb(232,232,232)"/><path d=" M 1075.383 587.076 L 1079.917 583.246 L 1079.917 523.695 L 1075.383 526.814 L 1075.383 587.076 Z " fill="rgb(116,116,116)"/><path d=" M 1075.383 587.076 L 1079.916 583.246 L 1125.916 583.246 L 1121.07 587.076 L 1075.383 587.076 Z " fill="rgb(162,162,162)"/><g id="man"><path d=" M 1100.417 565.971 L 1100.417 556.596 L 1098.542 556.596 L 1098.542 549.721 C 1098.542 548.346 1099.667 547.221 1101.042 547.221 L 1104.792 547.221 C 1106.167 547.221 1107.292 548.346 1107.292 549.721 L 1107.292 556.596 L 1105.417 556.596 L 1105.417 565.971 L 1100.417 565.971 Z " fill="rgb(0,0,0)"/><path d=" M 1102.917 545.971 C 1104.304 545.971 1105.417 544.858 1105.417 543.471 C 1105.417 542.083 1104.304 540.971 1102.917 540.971 C 1101.529 540.971 1100.417 542.083 1100.417 543.471 C 1100.417 544.858 1101.529 545.971 1102.917 545.971 Z " fill="rgb(0,0,0)"/></g></g><g id="stairs"><g opacity="0.25"><rect x="1131.383" y="524.507" width="78.133" height="58.767" transform="matrix(1,0,0,1,0,0)" fill="none" vector-effect="non-scaling-stroke" stroke-width="2" stroke-dasharray="5,5" stroke="rgb(0,0,0)" stroke-linejoin="round" stroke-linecap="round" stroke-miterlimit="3"/></g><g style="mix-blend-mode:normal;" opacity="0.25"><g transform="matrix(1.489,0,0,1.489,1150.619,545.545)"><text transform="matrix(1,0,0,1,0,9.32)" style="font-family:&quot;Ubuntu&quot;;font-weight:500;font-size:10px;font-style:normal;fill:#000000;stroke:none;">stairs</text></g></g></g><g id="stairs"><g opacity="0.25"><rect x="611.383" y="524.507" width="78.133" height="58.767" transform="matrix(1,0,0,1,0,0)" fill="none" vector-effect="non-scaling-stroke" stroke-width="2" stroke-dasharray="5,5" stroke="rgb(0,0,0)" stroke-linejoin="round" stroke-linecap="round" stroke-miterlimit="3"/></g><g style="mix-blend-mode:normal;" opacity="0.25"><g transform="matrix(1.489,0,0,1.489,630.619,545.545)"><text transform="matrix(1,0,0,1,0,9.32)" style="font-family:&quot;Ubuntu&quot;;font-weight:500;font-size:10px;font-style:normal;fill:#000000;stroke:none;">stairs</text></g></g></g><g id="room_612" class="room_block"><rect x="699.917" y="523.695" width="88.466" height="59.552" transform="matrix(1,0,0,1,0,0)" fill="rgb(232,232,232)"/><path d=" M 695.383 587.076 L 699.917 583.246 L 699.917 523.695 L 695.383 526.814 L 695.383 587.076 Z " fill="rgb(116,116,116)"/><path d=" M 695.383 587.076 L 699.917 583.246 L 788.383 583.246 L 783.536 587.076 L 695.383 587.076 Z " fill="rgb(162,162,162)"/><g transform="matrix(1.489,0,0,1.489,727.029,543.457)"><text transform="matrix(1,0,0,1,0,11.184)" style="font-family:&quot;Ubuntu&quot;;font-weight:500;font-size:12px;font-style:normal;fill:#000000;stroke:none;">612</text></g></g><g id="room_613" class="room_block"><rect x="797.917" y="523.695" width="88.466" height="59.552" transform="matrix(1,0,0,1,0,0)" fill="rgb(232,232,232)"/><path d=" M 793.383 587.076 L 797.917 583.246 L 797.917 523.695 L 793.383 526.814 L 793.383 587.076 Z " fill="rgb(116,116,116)"/><path d=" M 793.383 587.076 L 797.917 583.246 L 886.383 583.246 L 881.536 587.076 L 793.383 587.076 Z " fill="rgb(162,162,162)"/><g transform="matrix(1.489,0,0,1.489,825.029,543.457)"><text transform="matrix(1,0,0,1,0,11.184)" style="font-family:&quot;Ubuntu&quot;;font-weight:500;font-size:12px;font-style:normal;fill:#000000;stroke:none;">613</text></g></g><g id="room_614" class="room_block"><rect x="896.917" y="524.507" width="118.466" height="59.552" transform="matrix(1,0,0,1,0,0)" fill="rgb(232,232,232)"/><path d=" M 892.383 587.888 L 896.917 584.058 L 896.917 524.507 L 892.383 527.626 L 892.383 587.888 Z " fill="rgb(116,116,116)"/><path d=" M 892.383 587.888 L 896.917 584.058 L 1015.383 584.058 L 1010.536 587.888 L 892.383 587.888 Z " fill="rgb(162,162,162)"/><g transform="matrix(1.489,0,0,1.489,939.029,544.269)"><text transform="matrix(1,0,0,1,0,11.184)" style="font-family:&quot;Ubuntu&quot;;font-weight:500;font-size:12px;font-style:normal;fill:#000000;stroke:none;">614</text></g></g><g id="room_611" class="room_block"><rect x="512.917" y="523.695" width="93.466" height="59.552" transform="matrix(1,0,0,1,0,0)" fill="rgb(232,232,232)"/><path d=" M 508.383 587.076 L 512.917 583.246 L 512.917 523.695 L 508.383 526.814 L 508.383 587.076 Z " fill="rgb(116,116,116)"/><path d=" M 508.383 587.076 L 512.917 583.246 L 606.383 583.246 L 601.536 587.076 L 508.383 587.076 Z " fill="rgb(162,162,162)"/><g transform="matrix(1.489,0,0,1.489,542.529,543.457)"><text transform="matrix(1,0,0,1,0,11.184)" style="font-family:&quot;Ubuntu&quot;;font-weight:500;font-size:12px;font-style:normal;fill:#000000;stroke:none;">611</text></g></g><g id="room_610" class="room_block"><rect x="414.439" y="523.695" width="88.466" height="59.552" transform="matrix(1,0,0,1,0,0)" fill="rgb(232,232,232)"/><path d=" M 409.905 587.076 L 414.439 583.246 L 414.439 523.695 L 409.905 526.814 L 409.905 587.076 Z " fill="rgb(116,116,116)"/><path d=" M 409.905 587.076 L 414.439 583.246 L 502.905 583.246 L 498.059 587.076 L 409.905 587.076 Z " fill="rgb(162,162,162)"/><g transform="matrix(1.489,0,0,1.489,441.551,543.457)"><text transform="matrix(1,0,0,1,0,11.184)" style="font-family:&quot;Ubuntu&quot;;font-weight:500;font-size:12px;font-style:normal;fill:#000000;stroke:none;">610</text></g></g><g id="room_606" class="room_block"><rect x="798.439" y="418" width="88.466" height="59.552" transform="matrix(1,0,0,1,0,0)" fill="rgb(232,232,232)"/><path d=" M 793.905 481.381 L 798.439 477.552 L 798.439 418 L 793.905 421.119 L 793.905 481.381 Z " fill="rgb(116,116,116)"/><path d=" M 793.905 481.381 L 798.439 477.552 L 886.905 477.552 L 882.059 481.381 L 793.905 481.381 Z " fill="rgb(162,162,162)"/><g transform="matrix(1.489,0,0,1.489,825.551,437.762)"><text transform="matrix(1,0,0,1,0,11.184)" style="font-family:&quot;Ubuntu&quot;;font-weight:500;font-size:12px;font-style:normal;fill:#000000;stroke:none;">606</text></g></g><g id="room_607" class="room_block"><rect x="610.049" y="418" width="177.951" height="59.552" transform="matrix(1,0,0,1,0,0)" fill="rgb(232,232,232)"/><path d=" M 605.515 481.381 L 610.049 477.552 L 610.049 418 L 605.515 421.119 L 605.515 481.381 Z " fill="rgb(116,116,116)"/><path d=" M 605.516 481.381 L 610.049 477.552 L 788 477.552 L 783.153 481.381 L 605.516 481.381 Z " fill="rgb(162,162,162)"/><g transform="matrix(1.489,0,0,1.489,681.904,437.762)"><text transform="matrix(1,0,0,1,0,11.184)" style="font-family:&quot;Ubuntu&quot;;font-weight:500;font-size:12px;font-style:normal;fill:#000000;stroke:none;">607</text></g></g><g id="room_605" class="room_block"><rect x="896.917" y="418" width="88.466" height="59.552" transform="matrix(1,0,0,1,0,0)" fill="rgb(232,232,232)"/><path d=" M 892.383 481.381 L 896.917 477.552 L 896.917 418 L 892.383 421.119 L 892.383 481.381 Z " fill="rgb(116,116,116)"/><path d=" M 892.383 481.381 L 896.917 477.552 L 985.383 477.552 L 980.536 481.381 L 892.383 481.381 Z " fill="rgb(162,162,162)"/><g transform="matrix(1.489,0,0,1.489,924.029,437.762)"><text transform="matrix(1,0,0,1,0,11.184)" style="font-family:&quot;Ubuntu&quot;;font-weight:500;font-size:12px;font-style:normal;fill:#000000;stroke:none;">605</text></g></g><g id="room_609" class="room_block"><rect x="413.572" y="418" width="88.466" height="59.552" transform="matrix(1,0,0,1,0,0)" fill="rgb(232,232,232)"/><path d=" M 409.038 481.381 L 413.572 477.552 L 413.572 418 L 409.038 421.119 L 409.038 481.381 Z " fill="rgb(116,116,116)"/><path d=" M 409.038 481.381 L 413.572 477.552 L 502.038 477.552 L 497.192 481.381 L 409.038 481.381 Z " fill="rgb(162,162,162)"/><g transform="matrix(1.489,0,0,1.489,440.684,437.762)"><text transform="matrix(1,0,0,1,0,11.184)" style="font-family:&quot;Ubuntu&quot;;font-weight:500;font-size:12px;font-style:normal;fill:#000000;stroke:none;">609</text></g></g><g id="room_608" class="room_block"><rect x="512.049" y="418" width="88.466" height="59.552" transform="matrix(1,0,0,1,0,0)" fill="rgb(232,232,232)"/><path d=" M 507.515 481.381 L 512.049 477.552 L 512.049 418 L 507.515 421.119 L 507.515 481.381 Z " fill="rgb(116,116,116)"/><path d=" M 507.516 481.381 L 512.049 477.552 L 600.515 477.552 L 595.669 481.381 L 507.516 481.381 Z " fill="rgb(162,162,162)"/><g transform="matrix(1.489,0,0,1.489,539.161,437.762)"><text transform="matrix(1,0,0,1,0,11.184)" style="font-family:&quot;Ubuntu&quot;;font-weight:500;font-size:12px;font-style:normal;fill:#000000;stroke:none;">608</text></g></g><g id="room_604" class="room_block"><rect x="995.394" y="418" width="88.466" height="59.552" transform="matrix(1,0,0,1,0,0)" fill="rgb(232,232,232)"/><path d=" M 990.86 481.381 L 995.394 477.552 L 995.394 418 L 990.86 421.119 L 990.86 481.381 Z " fill="rgb(116,116,116)"/><path d=" M 990.86 481.381 L 995.394 477.552 L 1083.86 477.552 L 1079.014 481.381 L 990.86 481.381 Z " fill="rgb(162,162,162)"/><g transform="matrix(1.489,0,0,1.489,1022.506,437.762)"><text transform="matrix(1,0,0,1,0,11.184)" style="font-family:&quot;Ubuntu&quot;;font-weight:500;font-size:12px;font-style:normal;fill:#000000;stroke:none;">604</text></g></g><g id="room_603" class="room_block"><rect x="1093.871" y="418" width="88.466" height="59.552" transform="matrix(1,0,0,1,0,0)" fill="rgb(232,232,232)"/><path d=" M 1089.337 481.381 L 1093.871 477.552 L 1093.871 418 L 1089.337 421.119 L 1089.337 481.381 Z " fill="rgb(116,116,116)"/><path d=" M 1089.337 481.381 L 1093.871 477.552 L 1182.337 477.552 L 1177.491 481.381 L 1089.337 481.381 Z " fill="rgb(162,162,162)"/><g transform="matrix(1.489,0,0,1.489,1120.983,437.762)"><text transform="matrix(1,0,0,1,0,11.184)" style="font-family:&quot;Ubuntu&quot;;font-weight:500;font-size:12px;font-style:normal;fill:#000000;stroke:none;">603</text></g></g><g id="room_602" class="room_block"><rect x="1192.349" y="418" width="88.466" height="59.552" transform="matrix(1,0,0,1,0,0)" fill="rgb(232,232,232)"/><path d=" M 1187.815 481.381 L 1192.349 477.552 L 1192.349 418 L 1187.815 421.119 L 1187.815 481.381 Z " fill="rgb(116,116,116)"/><path d=" M 1187.815 481.381 L 1192.349 477.552 L 1280.815 477.552 L 1275.968 481.381 L 1187.815 481.381 Z " fill="rgb(162,162,162)"/><g transform="matrix(1.489,0,0,1.489,1219.461,437.762)"><text transform="matrix(1,0,0,1,0,11.184)" style="font-family:&quot;Ubuntu&quot;;font-weight:500;font-size:12px;font-style:normal;fill:#000000;stroke:none;">602</text></g></g><g id="room_601" class="room_block"><rect x="1290.917" y="418" width="88.466" height="59.552" transform="matrix(1,0,0,1,0,0)" fill="rgb(232,232,232)"/><path d=" M 1286.383 481.381 L 1290.917 477.552 L 1290.917 418 L 1286.383 421.119 L 1286.383 481.381 Z " fill="rgb(116,116,116)"/><path d=" M 1286.383 481.381 L 1290.917 477.552 L 1379.383 477.552 L 1374.536 481.381 L 1286.383 481.381 Z " fill="rgb(162,162,162)"/><g transform="matrix(1.489,0,0,1.489,1318.029,437.762)"><text transform="matrix(1,0,0,1,0,11.184)" style="font-family:&quot;Ubuntu&quot;;font-weight:500;font-size:12px;font-style:normal;fill:#000000;stroke:none;">601</text></g></g></g><g class="rooms connector"><g id="room_626" class="room_block"><rect x="1225.192" y="728" width="90.306" height="113.6" transform="matrix(1,0,0,1,0,0)" fill="rgb(232,232,232)"/><path d=" M 1220.658 845.43 L 1225.192 841.6 L 1225.192 728 L 1220.658 731.119 L 1220.658 845.43 Z " fill="rgb(116,116,116)"/><path d=" M 1220.658 845.43 L 1225.192 841.6 L 1315.498 841.6 L 1310.651 845.43 L 1220.658 845.43 Z " fill="rgb(162,162,162)"/><g transform="matrix(1.489,0,0,1.489,1255.457,776.455)"><text transform="matrix(1,0,0,1,0,9.32)" style="font-family:&quot;Ubuntu&quot;;font-weight:500;font-size:10px;font-style:normal;fill:#000000;stroke:none;">626</text></g></g><g id="room_625" class="room_block"><rect x="1225.192" y="608" width="90.306" height="110.885" transform="matrix(1,0,0,1,0,0)" fill="rgb(232,232,232)"/><path d=" M 1220.658 722.715 L 1225.192 718.885 L 1225.192 608 L 1220.658 611.119 L 1220.658 722.715 Z " fill="rgb(116,116,116)"/><path d=" M 1220.658 722.715 L 1225.192 718.885 L 1315.498 718.885 L 1310.651 722.715 L 1220.658 722.715 Z " fill="rgb(162,162,162)"/><g transform="matrix(1.489,0,0,1.489,1255.457,655.098)"><text transform="matrix(1,0,0,1,0,9.32)" style="font-family:&quot;Ubuntu&quot;;font-weight:500;font-size:10px;font-style:normal;fill:#000000;stroke:none;">625</text></g></g></g><g class="rooms tower A"><g id="women wc"><rect x="1098.534" y="866" width="51.466" height="59.552" transform="matrix(1,0,0,1,0,0)" fill="rgb(232,232,232)"/><path d=" M 1094 929.381 L 1098.534 925.552 L 1098.534 866 L 1094 869.119 L 1094 929.381 Z " fill="rgb(116,116,116)"/><path d=" M 1094 929.381 L 1098.534 925.552 L 1150 925.552 L 1145.154 929.381 L 1094 929.381 Z " fill="rgb(162,162,162)"/><g id="woman"><path d=" M 1126.142 908.276 L 1126.142 900.776 L 1129.892 900.776 L 1126.717 891.238 C 1126.374 890.217 1125.419 889.529 1124.342 889.526 L 1124.192 889.526 C 1123.114 889.525 1122.157 890.215 1121.817 891.238 L 1118.642 900.776 L 1122.392 900.776 L 1122.392 908.276 L 1126.142 908.276 Z " fill="rgb(0,0,0)"/><path d=" M 1124.267 888.276 C 1125.654 888.276 1126.767 887.163 1126.767 885.776 C 1126.767 884.388 1125.654 883.276 1124.267 883.276 C 1122.879 883.276 1121.767 884.388 1121.767 885.776 C 1121.767 887.163 1122.879 888.276 1124.267 888.276 Z " fill="rgb(0,0,0)"/></g></g><g id="men wc"><rect x="1159.534" y="866" width="51.466" height="59.552" transform="matrix(1,0,0,1,0,0)" fill="rgb(232,232,232)"/><path d=" M 1155 929.381 L 1159.534 925.552 L 1159.534 866 L 1155 869.119 L 1155 929.381 Z " fill="rgb(116,116,116)"/><path d=" M 1155 929.381 L 1159.534 925.552 L 1211 925.552 L 1206.154 929.381 L 1155 929.381 Z " fill="rgb(162,162,162)"/><g id="man"><path d=" M 1182.767 908.276 L 1182.767 898.901 L 1180.892 898.901 L 1180.892 892.026 C 1180.892 890.651 1182.017 889.526 1183.392 889.526 L 1187.142 889.526 C 1188.517 889.526 1189.642 890.651 1189.642 892.026 L 1189.642 898.901 L 1187.767 898.901 L 1187.767 908.276 L 1182.767 908.276 Z " fill="rgb(0,0,0)"/><path d=" M 1185.267 888.276 C 1186.654 888.276 1187.767 887.163 1187.767 885.776 C 1187.767 884.388 1186.654 883.276 1185.267 883.276 C 1183.879 883.276 1182.767 884.388 1182.767 885.776 C 1182.767 887.163 1183.879 888.276 1185.267 888.276 Z " fill="rgb(0,0,0)"/></g></g><g id="elevators"><g opacity="0.25"><rect x="1268" y="866" width="51.133" height="50.652" transform="matrix(1,0,0,1,0,0)" fill="none" vector-effect="non-scaling-stroke" stroke-width="2" stroke-dasharray="5,5" stroke="rgb(0,0,0)" stroke-linejoin="round" stroke-linecap="round" stroke-miterlimit="3"/></g><g opacity="0.25"><path d=" M 1287.514 878.826 L 1284.488 882.672 L 1290.54 882.672 L 1287.514 878.826 Z  M 1296.592 878.826 L 1299.618 882.672 L 1302.644 878.826 L 1296.592 878.826 Z  M 1282.471 884.595 C 1281.359 884.595 1280.454 885.459 1280.454 886.519 L 1280.454 901.903 C 1280.454 902.963 1281.359 903.826 1282.471 903.826 L 1304.662 903.826 C 1305.773 903.826 1306.679 902.963 1306.679 901.903 L 1306.679 886.519 C 1306.679 885.459 1305.773 884.595 1304.662 884.595 L 1282.471 884.595 Z  M 1285.497 886.519 C 1286.609 886.519 1287.514 887.382 1287.514 888.442 C 1287.514 889.501 1286.609 890.365 1285.497 890.365 C 1287.212 890.365 1288.523 891.615 1288.523 893.249 L 1288.523 896.134 L 1287.514 897.095 L 1287.01 901.903 L 1283.984 901.903 L 1283.48 897.095 L 1282.471 896.134 L 1282.471 893.249 C 1282.471 891.615 1283.782 890.365 1285.497 890.365 C 1284.385 890.365 1283.48 889.501 1283.48 888.442 C 1283.48 887.382 1284.385 886.519 1285.497 886.519 Z  M 1293.566 886.519 C 1294.678 886.519 1295.584 887.382 1295.584 888.442 C 1295.584 889.501 1294.678 890.365 1293.566 890.365 C 1295.281 890.365 1296.592 891.615 1296.592 893.249 L 1296.592 896.134 L 1295.584 897.095 L 1295.079 901.903 L 1292.053 901.903 L 1291.549 897.095 L 1290.54 896.134 L 1290.54 893.249 C 1290.54 891.615 1291.852 890.365 1293.566 890.365 C 1292.455 890.365 1291.549 889.501 1291.549 888.442 C 1291.549 887.382 1292.455 886.519 1293.566 886.519 Z  M 1301.636 886.519 C 1302.747 886.519 1303.653 887.382 1303.653 888.442 C 1303.653 889.501 1302.747 890.365 1301.636 890.365 C 1303.35 890.365 1304.662 891.615 1304.662 893.249 L 1304.662 896.134 L 1303.653 897.095 L 1303.149 901.903 L 1300.123 901.903 L 1299.618 897.095 L 1298.61 896.134 L 1298.61 893.249 C 1298.61 891.615 1299.921 890.365 1301.636 890.365 C 1300.524 890.365 1299.618 889.501 1299.618 888.442 C 1299.618 887.382 1300.524 886.519 1301.636 886.519 Z " fill="rgb(0,0,0)"/></g></g><g id="stairs"><g opacity="0.25"><rect x="1323.867" y="866" width="51.133" height="50.652" transform="matrix(1,0,0,1,0,0)" fill="none" vector-effect="non-scaling-stroke" stroke-width="2" stroke-dasharray="5,5" stroke="rgb(0,0,0)" stroke-linejoin="round" stroke-linecap="round" stroke-miterlimit="3"/></g><g style="mix-blend-mode:normal;" opacity="0.25"><g transform="matrix(1.489,0,0,1.489,1329.604,882.982)"><text transform="matrix(1,0,0,1,0,9.32)" style="font-family:&quot;Ubuntu&quot;;font-weight:500;font-size:10px;font-style:normal;fill:#000000;stroke:none;">stairs</text></g></g></g><g id="room_615" class="room_block"><rect x="1098.937" y="985" width="75.063" height="46.552" transform="matrix(1,0,0,1,0,0)" fill="rgb(232,232,232)"/><path d=" M 1094.314 1035.381 L 1098.848 1031.552 L 1098.848 985 L 1094.314 988.119 L 1094.314 1035.381 Z " fill="rgb(116,116,116)"/><path d=" M 1094.314 1035.381 L 1098.848 1031.552 L 1174 1031.552 L 1169.154 1035.381 L 1094.314 1035.381 Z " fill="rgb(162,162,162)"/><g transform="matrix(1.489,0,0,1.489,1119.348,998.262)"><text transform="matrix(1,0,0,1,0,11.184)" style="font-family:&quot;Ubuntu&quot;;font-weight:500;font-size:12px;font-style:normal;fill:#000000;stroke:none;">615</text></g></g><g id="room_616" class="room_block"><rect x="1183.623" y="985" width="75.063" height="46.552" transform="matrix(1,0,0,1,0,0)" fill="rgb(232,232,232)"/><path d=" M 1179 1035.381 L 1183.534 1031.552 L 1183.534 985 L 1179 988.119 L 1179 1035.381 Z " fill="rgb(116,116,116)"/><path d=" M 1179 1035.381 L 1183.534 1031.552 L 1258.686 1031.552 L 1253.84 1035.381 L 1179 1035.381 Z " fill="rgb(162,162,162)"/><g transform="matrix(1.489,0,0,1.489,1204.034,998.262)"><text transform="matrix(1,0,0,1,0,11.184)" style="font-family:&quot;Ubuntu&quot;;font-weight:500;font-size:12px;font-style:normal;fill:#000000;stroke:none;">616</text></g></g><g id="room_617" class="room_block"><rect x="1268.309" y="985" width="75.063" height="46.552" transform="matrix(1,0,0,1,0,0)" fill="rgb(232,232,232)"/><path d=" M 1263.686 1035.381 L 1268.22 1031.552 L 1268.22 985 L 1263.686 988.119 L 1263.686 1035.381 Z " fill="rgb(116,116,116)"/><path d=" M 1263.686 1035.381 L 1268.22 1031.552 L 1343.372 1031.552 L 1338.526 1035.381 L 1263.686 1035.381 Z " fill="rgb(162,162,162)"/><g transform="matrix(1.489,0,0,1.489,1288.72,998.262)"><text transform="matrix(1,0,0,1,0,11.184)" style="font-family:&quot;Ubuntu&quot;;font-weight:500;font-size:12px;font-style:normal;fill:#000000;stroke:none;">617</text></g></g><g id="room_618" class="room_block"><rect x="1353.057" y="985" width="75.063" height="46.552" transform="matrix(1,0,0,1,0,0)" fill="rgb(232,232,232)"/><path d=" M 1348.434 1035.381 L 1352.967 1031.552 L 1352.967 985 L 1348.434 988.119 L 1348.434 1035.381 Z " fill="rgb(116,116,116)"/><path d=" M 1348.434 1035.381 L 1352.967 1031.552 L 1428.12 1031.552 L 1423.273 1035.381 L 1348.434 1035.381 Z " fill="rgb(162,162,162)"/><g transform="matrix(1.489,0,0,1.489,1373.467,998.262)"><text transform="matrix(1,0,0,1,0,11.184)" style="font-family:&quot;Ubuntu&quot;;font-weight:500;font-size:12px;font-style:normal;fill:#000000;stroke:none;">618</text></g></g><g id="room_619" class="room_block"><rect x="1437.743" y="985" width="75.063" height="46.552" transform="matrix(1,0,0,1,0,0)" fill="rgb(232,232,232)"/><path d=" M 1433.12 1035.381 L 1437.654 1031.552 L 1437.654 985 L 1433.12 988.119 L 1433.12 1035.381 Z " fill="rgb(116,116,116)"/><path d=" M 1433.12 1035.381 L 1437.654 1031.552 L 1512.806 1031.552 L 1507.959 1035.381 L 1433.12 1035.381 Z " fill="rgb(162,162,162)"/><g transform="matrix(1.489,0,0,1.489,1458.153,998.262)"><text transform="matrix(1,0,0,1,0,11.184)" style="font-family:&quot;Ubuntu&quot;;font-weight:500;font-size:12px;font-style:normal;fill:#000000;stroke:none;">619</text></g></g><g id="room_620" class="room_block"><rect x="1522.429" y="985" width="75.063" height="46.552" transform="matrix(1,0,0,1,0,0)" fill="rgb(232,232,232)"/><path d=" M 1517.806 1035.381 L 1522.34 1031.552 L 1522.34 985 L 1517.806 988.119 L 1517.806 1035.381 Z " fill="rgb(116,116,116)"/><path d=" M 1517.806 1035.381 L 1522.34 1031.552 L 1597.492 1031.552 L 1592.646 1035.381 L 1517.806 1035.381 Z " fill="rgb(162,162,162)"/><g transform="matrix(1.489,0,0,1.489,1542.84,998.262)"><text transform="matrix(1,0,0,1,0,11.184)" style="font-family:&quot;Ubuntu&quot;;font-weight:500;font-size:12px;font-style:normal;fill:#000000;stroke:none;">620</text></g></g><g id="room_622" class="room_block"><rect x="1384.534" y="866" width="104.152" height="46.552" transform="matrix(1,0,0,1,0,0)" fill="rgb(232,232,232)"/><path d=" M 1380 916.381 L 1384.534 912.552 L 1384.534 866 L 1380 869.119 L 1380 916.381 Z " fill="rgb(116,116,116)"/><path d=" M 1380 916.381 L 1384.534 912.552 L 1488.686 912.552 L 1483.84 916.381 L 1380 916.381 Z " fill="rgb(162,162,162)"/><g transform="matrix(1.489,0,0,1.489,1419.489,879.262)"><text transform="matrix(1,0,0,1,0,11.184)" style="font-family:&quot;Ubuntu&quot;;font-weight:500;font-size:12px;font-style:normal;fill:#000000;stroke:none;">622</text></g></g><g id="room_623" class="room_block"><rect x="1498.623" y="866.271" width="75.063" height="46.552" transform="matrix(1,0,0,1,0,0)" fill="rgb(232,232,232)"/><path d=" M 1494 916.652 L 1498.534 912.823 L 1498.534 866.271 L 1494 869.391 L 1494 916.652 Z " fill="rgb(116,116,116)"/><path d=" M 1494 916.652 L 1498.534 912.823 L 1573.686 912.823 L 1568.84 916.652 L 1494 916.652 Z " fill="rgb(162,162,162)"/><g transform="matrix(1.489,0,0,1.489,1519.034,879.533)"><text transform="matrix(1,0,0,1,0,11.184)" style="font-family:&quot;Ubuntu&quot;;font-weight:500;font-size:12px;font-style:normal;fill:#000000;stroke:none;">623</text></g></g><g id="room_624" class="room_block"><rect x="1582.996" y="866" width="75.063" height="46.552" transform="matrix(1,0,0,1,0,0)" fill="rgb(232,232,232)"/><path d=" M 1578.372 916.381 L 1582.906 912.552 L 1582.906 866 L 1578.372 869.119 L 1578.372 916.381 Z " fill="rgb(116,116,116)"/><path d=" M 1578.372 916.381 L 1582.906 912.552 L 1658.059 912.552 L 1653.212 916.381 L 1578.372 916.381 Z " fill="rgb(162,162,162)"/><g transform="matrix(1.489,0,0,1.489,1603.406,879.262)"><text transform="matrix(1,0,0,1,0,11.184)" style="font-family:&quot;Ubuntu&quot;;font-weight:500;font-size:12px;font-style:normal;fill:#000000;stroke:none;">624</text></g></g><g id="room_621" class="room_block"><rect x="1607.534" y="985" width="50.152" height="46.552" transform="matrix(1,0,0,1,0,0)" fill="rgb(232,232,232)"/><path d=" M 1603 1035.381 L 1607.534 1031.552 L 1607.534 985 L 1603 988.119 L 1603 1035.381 Z " fill="rgb(116,116,116)"/><path d=" M 1603 1035.381 L 1607.534 1031.552 L 1657.686 1031.552 L 1652.84 1035.381 L 1603 1035.381 Z " fill="rgb(162,162,162)"/><g transform="matrix(1.489,0,0,1.489,1615.489,998.262)"><text transform="matrix(1,0,0,1,0,11.184)" style="font-family:&quot;Ubuntu&quot;;font-weight:500;font-size:12px;font-style:normal;fill:#000000;stroke:none;">621</text></g></g></g></g></svg>
